<?xml version="1.0" encoding="UTF-8"?>
<svg width="670px" height="260px" viewBox="0 0 670 260" version="1.1" xmlns="http://www.w3.org/2000/svg" xmlns:xlink="http://www.w3.org/1999/xlink">
    <!-- Generator: sketchtool 62 (101010) - https://sketch.com -->
    <title>24c4dae0-dfb9-41b1-8505-1258a2ba74ab@3.00x</title>
    <desc>Created with sketchtool.</desc>
    <defs>
        <path d="M58.7482927,1.21065758 L5.75235506,28.1079099 C2.57541708,29.7203147 0,33.9039563 0,37.4543685 L0,90.0730585 C0,93.6225603 2.56830494,97.8035028 5.75235506,99.4195171 L61.0556163,127.487815 C62.9582546,128.453469 62.9540675,130.02123 61.0556163,130.984758 L5.75235506,159.053056 C2.57541708,160.665461 2.56830494,163.276075 5.75235506,164.89209 L58.7482927,191.789342 C61.9252307,193.401748 67.0689011,193.405357 70.2528874,191.789342 L123.24776,164.89209 C126.424635,163.279686 129,159.096044 129,155.545631 L129,102.926942 C129,99.3774398 126.431747,95.1964974 123.24776,93.580483 L67.9456103,65.512185 C66.04301,64.5465308 66.047197,62.9787711 67.9456103,62.015242 L123.24776,33.9469441 C126.424635,32.3345394 126.431747,29.7239244 123.24776,28.1079099 L70.2528874,1.21065758 C67.0760131,-0.401747191 61.9323428,-0.40535685 58.7482927,1.21065758 Z" id="path-1"></path>
    </defs>
    <g id="Tile" stroke="none" stroke-width="1" fill="none" fill-rule="evenodd">
        <g id="Scrapbox-Logo3">
            <path d="M302.812078,102.899504 L294.294727,107.946823 C292.702411,105.182801 291.185226,103.380205 289.743128,102.538982 C288.240942,101.577583 286.303151,101.09689 283.929698,101.09689 C281.015458,101.09689 278.596975,101.92308 276.674178,103.575484 C274.75138,105.197845 273.789995,107.240787 273.789995,109.704371 C273.789995,113.099311 276.31363,115.833248 281.360973,117.906264 L288.301037,120.745381 C293.949255,123.028703 298.080203,125.815216 300.694006,129.105002 C303.307809,132.394789 304.614691,136.428097 304.614691,141.205047 C304.614691,147.604358 302.48162,152.891973 298.215412,157.068049 C293.919161,161.274169 288.586482,163.377197 282.217215,163.377197 C276.178429,163.377197 271.191247,161.589623 267.255521,158.014421 C263.379881,154.439219 260.961399,149.406973 260,142.91753 L270.635421,140.574132 C271.116121,144.660078 271.957332,147.484144 273.159081,149.046417 C275.322228,152.050789 278.476771,153.552952 282.622803,153.552952 C285.897568,153.552952 288.616483,152.456373 290.77963,150.263182 C292.942778,148.069991 294.024335,145.290989 294.024335,141.926093 C294.024335,140.574126 293.836565,139.334841 293.461018,138.208202 C293.085472,137.081563 292.499628,136.04507 291.70347,135.098693 C290.907312,134.152316 289.87833,133.26604 288.616494,132.439838 C287.354658,131.613636 285.852495,130.825 284.109959,130.073907 L277.395223,127.279856 C267.871366,123.253998 263.109509,117.365519 263.109509,109.614241 C263.109509,104.386635 265.107386,100.01534 269.1032,96.5002253 C273.099014,92.9550671 278.071174,91.1825146 284.019829,91.1825146 C292.0415,91.1825146 298.305521,95.0881388 302.812078,102.899504 Z M349.499775,120.114466 L349.499775,133.589004 C347.186409,130.764895 345.113424,128.827105 343.280757,127.775575 C341.478134,126.694001 339.360084,126.153222 336.926543,126.153222 C333.110992,126.153222 329.941428,127.490147 327.417756,130.164038 C324.894084,132.837928 323.632267,136.187752 323.632267,140.21361 C323.632267,144.329598 324.849019,147.709466 327.28256,150.353312 C329.746144,152.997159 332.885665,154.319063 336.701217,154.319063 C339.134758,154.319063 341.282851,153.793306 343.145561,152.741776 C344.948184,151.720289 347.066234,149.737434 349.499775,146.79315 L349.499775,160.177557 C345.383786,162.310661 341.267859,163.377197 337.15187,163.377197 C330.361991,163.377197 324.683814,161.184039 320.11717,156.797657 C315.550525,152.381231 313.267237,146.898335 313.267237,140.348806 C313.267237,133.799276 315.580569,128.271316 320.207301,123.764759 C324.834032,119.258202 330.512209,117.004957 337.242001,117.004957 C341.568296,117.004957 345.654179,118.04145 349.499775,120.114466 Z M359.32402,118.221721 L369.463722,118.221721 L369.463722,122.142406 C371.326433,120.189565 372.978812,118.85264 374.42091,118.131591 C375.893052,117.380498 377.635562,117.004957 379.64849,117.004957 C382.322381,117.004957 385.116404,117.876212 388.030644,119.618747 L383.388914,128.902208 C381.466116,127.520197 379.588412,126.829202 377.755746,126.829202 C372.227703,126.829202 369.463722,131.005216 369.463722,139.357368 L369.463722,162.115367 L359.32402,162.115367 L359.32402,118.221721 Z M426.200991,118.221721 L436.385759,118.221721 L436.385759,162.115367 L426.200991,162.115367 L426.200991,157.518702 C422.024915,161.424385 417.533447,163.377197 412.726453,163.377197 C406.657623,163.377197 401.640398,161.184039 397.674628,156.797657 C393.738902,152.321143 391.771068,146.733096 391.771068,140.033348 C391.771068,133.453775 393.738902,127.97088 397.674628,123.584498 C401.610355,119.198115 406.53745,117.004957 412.456061,117.004957 C417.563493,117.004957 422.14509,119.107986 426.200991,123.314105 L426.200991,118.221721 Z M402.136097,140.033348 C402.136097,144.239468 403.26272,147.6644 405.515998,150.308247 C407.829364,152.982137 410.743561,154.319063 414.258675,154.319063 C418.014139,154.319063 421.048509,153.027202 423.361875,150.443443 C425.675241,147.769553 426.831906,144.374664 426.831906,140.258675 C426.831906,136.142686 425.675241,132.747798 423.361875,130.073907 C421.048509,127.460104 418.044183,126.153222 414.348806,126.153222 C410.863735,126.153222 407.949539,127.475126 405.606129,130.118973 C403.292763,132.792863 402.136097,136.097622 402.136097,140.033348 Z M459.32402,186 L449.184317,186 L449.184317,118.221721 L459.32402,118.221721 L459.32402,122.998648 C463.319834,119.002834 467.856366,117.004957 472.933754,117.004957 C478.97254,117.004957 483.9447,119.228159 487.850383,123.674628 C491.816153,128.091054 493.799009,133.664079 493.799009,140.393871 C493.799009,146.973444 491.831175,152.45634 487.895448,156.842722 C483.989766,161.19906 479.062671,163.377197 473.114015,163.377197 C467.97654,163.377197 463.379921,161.319233 459.32402,157.203245 L459.32402,186 Z M483.433979,140.438936 C483.433979,136.232817 482.292335,132.807885 480.009013,130.164038 C477.695647,127.490147 474.781451,126.153222 471.266336,126.153222 C467.540916,126.153222 464.521568,127.445082 462.208202,130.028842 C459.894836,132.612601 458.73817,136.00749 458.73817,140.21361 C458.73817,144.329598 459.894836,147.724487 462.208202,150.398378 C464.491524,153.012181 467.49585,154.319063 471.221271,154.319063 C474.736385,154.319063 477.63556,152.997159 479.918882,150.353312 C482.262292,147.709466 483.433979,144.404707 483.433979,140.438936 Z M514.664263,86 L514.664263,123.314105 C518.720164,119.107986 523.316784,117.004957 528.454259,117.004957 C534.37287,117.004957 539.299965,119.213137 543.235692,123.629563 C547.171418,128.015945 549.139252,133.483819 549.139252,140.033348 C549.139252,146.793184 547.156397,152.381231 543.190626,156.797657 C539.2549,161.184039 534.28274,163.377197 528.273997,163.377197 C523.19661,163.377197 518.660077,161.424385 514.664263,157.518702 L514.664263,162.115367 L504.524561,162.115367 L504.524561,86 L514.664263,86 Z M538.774223,140.484002 C538.774223,136.277882 537.632579,132.85295 535.349256,130.209103 C533.03589,127.505169 530.136716,126.153222 526.651645,126.153222 C522.926224,126.153222 519.891855,127.460104 517.548445,130.073907 C515.235079,132.657667 514.078414,136.022512 514.078414,140.168544 C514.078414,144.434752 515.220058,147.844662 517.50338,150.398378 C519.786702,153.012181 522.791028,154.319063 526.516449,154.319063 C530.031563,154.319063 532.94576,153.012181 535.259126,150.398378 C537.602535,147.754531 538.774223,144.449772 538.774223,140.484002 Z M557.791798,139.853087 C557.791798,133.513863 560.060064,128.121098 564.596665,123.674628 C569.133266,119.228159 574.661226,117.004957 581.180712,117.004957 C587.730242,117.004957 593.288245,119.24318 597.85489,123.719694 C602.361447,128.196207 604.614691,133.694124 604.614691,140.21361 C604.614691,146.793183 602.346425,152.306122 597.809824,156.752591 C593.24318,161.169017 587.640111,163.377197 581.000451,163.377197 C574.420877,163.377197 568.907939,161.123952 564.461469,156.617395 C560.015,152.170926 557.791798,146.582879 557.791798,139.853087 Z M568.156827,140.033348 C568.156827,144.419731 569.328515,147.889727 571.671924,150.443443 C574.075421,153.027202 577.244986,154.319063 581.180712,154.319063 C585.146482,154.319063 588.316046,153.042224 590.6895,150.488508 C593.062953,147.934793 594.249662,144.524882 594.249662,140.258675 C594.249662,135.992468 593.062953,132.582557 590.6895,130.028842 C588.286003,127.445082 585.116438,126.153222 581.180712,126.153222 C577.305073,126.153222 574.165552,127.445082 571.762055,130.028842 C569.358558,132.612601 568.156827,135.947403 568.156827,140.033348 Z M628.949977,138.365931 L613.177107,118.221721 L625.254619,118.221721 L635.033799,131.020279 L644.99324,118.221721 L657.431275,118.221721 L641.207751,138.365931 L660,162.115367 L647.922488,162.115367 L635.033799,145.711582 L621.829653,162.115367 L609.436683,162.115367 L628.949977,138.365931 Z" id="Scrapbox" fill="#262626" fill-rule="nonzero"></path>
            <g id="Scrapbox-nocircle">
                <circle id="circle" cx="129.5" cy="129.5" r="129.5"></circle>
                <g id="Rectangle" stroke-width="1" fill-rule="evenodd" transform="translate(65.000000, 33.000000)">
                    <mask id="mask-2" fill="white">
                        <use xlink:href="#path-1"></use>
                    </mask>
                    <use id="Mask" fill="#05EC40" xlink:href="#path-1"></use>
                    <polygon fill="#00B52E" mask="url(#mask-2)" points="65 -2.32892549e-14 129 -2.32892549e-14 129 193 65 193"></polygon>
                    <path d="M67,162 L127.585565,131.2381 C129.473555,130.279485 129.4694,128.723041 127.585565,127.766397 L67,97 L67,162 Z" id="Mask-Copy" fill="#004D3F" mask="url(#mask-2)" transform="translate(98.000000, 129.500000) scale(-1, 1) translate(-98.000000, -129.500000) "></path>
                    <path d="M0.0400608252,95 L60.5864787,64.2380993 C62.4732493,63.2794852 62.4690971,61.7230411 60.5864787,60.7663969 L0.0400608252,30 C0.0400608252,30 -6,52.4752758 -6,63.6434759 C-6,74.811676 0.0400608252,95 0.0400608252,95 Z" id="Mask" fill="#FCFF19" mask="url(#mask-2)"></path>
                </g>
            </g>
        </g>
    </g>
</svg>