<svg xmlns="http://www.w3.org/2000/svg" viewBox="0 0 941.37 254"><title>schedule_1</title><path d="M904.84,175.57H5.45A5.36,5.36,0,0,0,0,180.85v67.87A5.36,5.36,0,0,0,5.45,254l899.39-.49,34.71-34.84a5.17,5.17,0,0,0,.05-7.83Z" style="fill:#ffed4d"/><path d="M215,230.85c-2.32,1.25-4-1.85-1.82-2.92A32.74,32.74,0,0,0,223.69,219a22.31,22.31,0,0,0-4-2c-1.81-.63-.54-3.63,1.82-2.72a30.65,30.65,0,0,1,4.23,2,42.83,42.83,0,0,0,4.24-7.87c1.17-2.82,4.6-1,3.53,1.15a77.87,77.87,0,0,1-4.88,8.5,14.33,14.33,0,0,1,3.36,3.06,1.9,1.9,0,0,1-.37,2.65,1.57,1.57,0,0,1-2.38-.26,15.55,15.55,0,0,0-2.72-2.56A37.07,37.07,0,0,1,215,230.85Z"/><path d="M253.74,215.05a12.49,12.49,0,0,0-5-2.48c-2-.47-1.17-3.87,1.38-3.16a21.39,21.39,0,0,1,5.92,2.55,2,2,0,0,1,.43,2.79A1.77,1.77,0,0,1,253.74,215.05Zm-2.09,13.89c-2.85.9-3.93-2.93-1.14-3.63,6.76-1.72,13.55-8.68,16.94-15.26,1.08-2.09,4.54-.68,3.06,2C266.34,219.59,259.38,226.48,251.65,228.94Z"/><path d="M282.44,230.28c-2.69,1-4-2.12-1.44-3a26.1,26.1,0,0,0,11.23-7.66,14.67,14.67,0,0,0-3.53-1.61c-1.89-.51-1-3.37,1.34-2.69a21.87,21.87,0,0,1,4.24,1.74,33.4,33.4,0,0,0,2.82-4.8c.64-1.38.51-1.55-.37-1.51-1.34,0-4.81.37-6,.5-2.35,3.09-5.44,6.62-7.7,8.2s-4.23-1.38-1.95-2.79c3.26-2,7.77-7.7,9-10.59s4.64-.77,3.46,1.18c-.17.27-.37.57-.6.91,1.64-.14,3.49-.31,5.11-.37,3.46-.1,4.06,2.32,2.75,4.7s-2.49,4.34-3.8,6.26a12.46,12.46,0,0,1,2.42,2.11,1.83,1.83,0,0,1-.06,2.56,1.62,1.62,0,0,1-2.39-.1,18.4,18.4,0,0,0-2-1.82A28.86,28.86,0,0,1,282.44,230.28Z"/><path d="M315,218.18a1.62,1.62,0,0,1-1.78-1.61,1.72,1.72,0,0,1,1.78-1.72h21.11a1.67,1.67,0,1,1,0,3.33Z"/><path d="M352.43,208.2c-1.75-2.16,1.55-4,2.89-2a33.72,33.72,0,0,1,3.93,7.83,64.93,64.93,0,0,1,5.92-3.7c2.29-1.28,4,1.95,1.45,3.26a50.87,50.87,0,0,0-9.55,6c-3.33,2.83-3.43,5.35-.81,6.62,2.36,1.18,7.16.31,9.18-.43,2.82-1.08,3.83,2.79.84,3.63-2.65.74-8.27,1.41-11.6-.27-4.84-2.46-4.64-7.9.81-12.24.34-.27.64-.54,1-.77A27,27,0,0,0,352.43,208.2Z"/><path d="M394.75,212c-.54,4.27-3.56,10.62-6.79,13.62-2.59,2.38-5.41,1.07-6.89-1.82-2.12-4.17.14-10.42,4.64-13.55,4.14-2.85,10.29-3.32,14.52-.77,5.21,3.13,6,9.31,3.13,14.12-1.58,2.59-4.88,4.67-8.2,5.55-3,.77-4-2.63-1.11-3.3,2.55-.57,5.14-2,6.25-3.76,2.39-3.77,1.48-8.17-1.85-10.29a8.69,8.69,0,0,0-4.17-1.34A1.67,1.67,0,0,1,394.75,212Zm-7.46.64c-3.13,2.42-4.81,6.89-3.39,9.48.5,1,1.37,1.48,2.21.74,2.52-2.22,4.88-7.56,5.21-11.19a2.45,2.45,0,0,1,.31-1A11.28,11.28,0,0,0,387.29,212.6Z"/><path d="M420.2,228c.23-5.88,1-15.33,1.28-20.2.13-2.49,1.68-3.77,3.26-3.77a3.66,3.66,0,0,1,3.39,2.89c1.28,4,4.24,14.46,5,16.1.11.21.21.31.34.31s.24-.1.3-.31c1.28-3.09,4-12.43,5.28-16.26a3.7,3.7,0,0,1,3.46-2.76,3.47,3.47,0,0,1,3.37,3.66c.1,4.34.83,15.26,1.1,20v.13a1.8,1.8,0,0,1-1.95,1.75,1.88,1.88,0,0,1-2-1.75c-.34-4.81-.67-18.15-.67-18.15,0-.57-.14-.81-.31-.81s-.4.31-.5.71c-.74,2.79-4.2,13.71-5.58,17.31a2.92,2.92,0,0,1-2.62,1.92A2.6,2.6,0,0,1,431,227c-1.08-2.55-4-13.21-5.28-17.17-.14-.41-.3-.64-.44-.64s-.3.27-.37,1c-.23,3-.7,13.18-.87,17.82a1.85,1.85,0,0,1-2,1.68,1.59,1.59,0,0,1-1.78-1.51Z"/><path d="M458.42,227.83c.07-2.62.1-7.5.1-11.94,0-2.95,0-5.74-.07-7.52,0-.68-.1-.68-2.08-.68-1.28,0-2.86.07-4.44.07a1.8,1.8,0,0,1-1.92-1.82,1.73,1.73,0,0,1,1.85-1.78h.07c2,0,5.58.07,9.08.07,2.85,0,5.71,0,7.63-.07a1.7,1.7,0,0,1,1.75,1.82,1.63,1.63,0,0,1-1.62,1.78h-.13c-1.14-.07-2.12-.07-2.93-.07-3.32,0-3.32,0-3.32.68-.07,2.28-.11,5.54-.11,8.84,0,4,.07,8.13.17,10.62.07,1.17-1,1.75-2,1.75a1.83,1.83,0,0,1-2-1.72Z"/><path d="M491.4,219.79c-.34,0-2,0-3.87.1h-.07a1.79,1.79,0,0,1-1.68-1.94c0-1.79,1.45-1.79,2.56-1.79,1.64,0,3.53.07,4.63.07,2.9,0,4,1.48,4,3.56,0,3.84-3.43,10.12-11.43,10.12a12.38,12.38,0,0,1-12.57-12.81c0-6.82,4.81-13.31,13-13.31,5.34,0,9,3.1,9,4.91a2.11,2.11,0,0,1-2.05,2.09,2.15,2.15,0,0,1-1.71-.91,7.07,7.07,0,0,0-5.55-2.39c-5.88,0-8.74,5.14-8.74,9.45,0,4.47,2.89,9.07,8.64,9.07,5.55,0,7.06-4.3,7.06-5.27,0-.64-.5-1-1.11-1Z"/><path d="M517,231.93c-4.1-3.63-6.19-9.31-6.19-15a20.37,20.37,0,0,1,6.12-15,2,2,0,0,1,1.31-.57,1.82,1.82,0,0,1,1.78,1.78,1.91,1.91,0,0,1-.74,1.45A15.79,15.79,0,0,0,514,216.74a16.36,16.36,0,0,0,5.27,12.37,1.66,1.66,0,0,1,.61,1.31,2,2,0,0,1-1.85,2A1.71,1.71,0,0,1,517,231.93Z"/><path d="M536.91,220.57v-1.38c0-.88-.4-1-1.55-1h-1.31c-.64,0-1.85,0-1.85-1.44a1.44,1.44,0,0,1,1.42-1.51c1.21,0,2.15,0,3.26,0,2.15.07,3.16,1,3.16,3.16,0,2-.07,4.27-.07,6.42,2.15,2.76,5.75,3.39,10.18,3.39,3.36,0,7-.36,9.55-.57h.17a1.57,1.57,0,0,1,1.61,1.62A1.64,1.64,0,0,1,559.8,231c-2.12.21-5.18.41-8.23.41-8.48,0-10.69-1.62-13.15-4.14-1.68,1.89-3.76,4-5.07,4a1.9,1.9,0,0,1-1.85-1.78,1.44,1.44,0,0,1,.84-1.28,16,16,0,0,0,4.5-3.49C536.88,223.16,536.91,221.84,536.91,220.57Zm.54-11.4a10.18,10.18,0,0,0-3.3-2.92,1.18,1.18,0,0,1-.67-1,1.73,1.73,0,0,1,1.71-1.52c1,0,5.22,2.59,5.22,4.31a2,2,0,0,1-1.82,1.88A1.32,1.32,0,0,1,537.45,209.17Zm18.92,5c0-3.06,0-6.12-.07-7.46,0-1.08-1-1.11-5-1.11-1.42,0-2.79,0-4.31,0-1.07,0-1.48.57-1.48,1.45,0,1,0,2.45,0,4,0,4.44-.27,10.32-2.12,13.55a1.74,1.74,0,0,1-1.58.94,1.62,1.62,0,0,1-1.71-1.35,1,1,0,0,1,.16-.6c2-3.19,2.36-7.63,2.36-11.36,0-2.12-.14-4-.17-5.41v-.21c0-2.38,1.21-3.66,4-3.69,1.48,0,2.89,0,4.27,0,1.71,0,3.43,0,5.24.07a3.11,3.11,0,0,1,3.36,3.26c0,1.41,0,3.43,0,5.45v7.66c0,.5.06,2.45.1,3.56v.14c0,1.95-1.21,3.8-4.81,3.8-1.85,0-3.49-.2-3.49-1.58a1.41,1.41,0,0,1,1.44-1.45,1.16,1.16,0,0,1,.34,0,10.19,10.19,0,0,0,1.71.21c1,0,1.65-.37,1.65-1.82C556.34,222.28,556.37,218.25,556.37,214.18Zm-9.21.17a1.15,1.15,0,1,1,0-2.29h0l2.25,0v-1.75l-2,0h0a1.11,1.11,0,0,1-1.17-1.14,1.1,1.1,0,0,1,1.17-1.14h0l2,0v-1a1.49,1.49,0,0,1,2.92,0v1l2.12,0h0a1.14,1.14,0,0,1,0,2.28h0l-2.15,0v1.75l2.39,0h0a1.15,1.15,0,1,1,0,2.29Zm3.23,8.7c-1.82,0-3.67-.13-3.77-1.91,0-.61,0-1.21,0-1.85,0-3.33,0-3.73,4.47-3.73,3.33,0,3.93.37,3.93,3.53,0,.67,0,1.34,0,1.91C554.89,223,552.84,223.05,550.39,223.05Zm.4-5.44c-1.68,0-1.71.1-1.71,1.65s.13,1.58,1.78,1.58,1.55-.17,1.55-1.45C552.41,217.68,552.41,217.61,550.79,217.61Z"/><path d="M570.46,228.63c-2.69-6.62,0-16.57.57-20.57.37-2.48,3.63-1.75,3.26.2-.54,2.73-2.55,10.63-1.75,13.75.1.44.24.34.37,0s.44-.84.57-1.08a1.35,1.35,0,0,1,2.36,1.31,16.79,16.79,0,0,0-2,4.71c-.2.91.2,1.95-.64,2.69S571.13,230.28,570.46,228.63Zm9-2.38a1.66,1.66,0,0,1,2.38-2.32c1.82,1.65,5.85,1.11,8.47.57s2.9,3,.68,3.56C587.4,229,581.89,228.87,579.47,226.25Zm1.91-13.41a1.58,1.58,0,1,1-.47-3.13,20.3,20.3,0,0,1,8.84-.2c2.36.57,1.72,3.73-.57,3.22A17,17,0,0,0,581.38,212.84Z"/><path d="M615.91,229.68a1.87,1.87,0,0,1-2-1.85c0-3.13.14-10.29.14-14.73,0-4.7-.17-5.07-1.31-5.07h-.48a1.67,1.67,0,0,1-1.71-1.78,2,2,0,0,1,1.75-2.05c.67,0,.94,0,1.65,0a3.59,3.59,0,0,1,3.9,3.6c0,.44,0,1,0,1.78,0,2.69-.1,7.2-.1,12,0,2.09,0,4.2.07,6.29v.07A1.81,1.81,0,0,1,615.91,229.68Z"/><path d="M662.39,207.93c-1.81,0-5.07-.07-8.4-.07-4.07,0-8.27,0-10.29.07-1.17,0-1.61.57-1.61,1.51-.07,6.08.4,15.36-3.39,20.17a1.84,1.84,0,0,1-1.52.77,1.74,1.74,0,0,1-1.78-1.51,1.25,1.25,0,0,1,.3-.77c2.79-3.47,3.23-8.88,3.23-13.82,0-1.78,0-3.46-.07-5v-.1c0-2.69,1.31-4.07,4.37-4.13,1.65,0,3.8-.07,6.16-.07v-1.78a1.75,1.75,0,0,1,3.49,0V205c3.77,0,7.46,0,9.55.07a1.43,1.43,0,0,1,1.58,1.41,1.48,1.48,0,0,1-1.58,1.48Zm-17.78,13.88a1.23,1.23,0,0,1-1.28-1.31,1.27,1.27,0,0,1,1.28-1.34h12.1c2,0,2.79,1,2.79,2.15,0,2.15-3.69,5.21-4.06,5.51a23.7,23.7,0,0,0,7.36,1.24,1.47,1.47,0,0,1,1.54,1.52,1.65,1.65,0,0,1-1.81,1.61,25.68,25.68,0,0,1-9.88-2.56,27.31,27.31,0,0,1-10.32,2.83,1.55,1.55,0,0,1-1.75-1.48,1.44,1.44,0,0,1,1.44-1.41,23.32,23.32,0,0,0,7.7-1.68c-.67-.47-3.09-2.26-3.09-3.23a1.68,1.68,0,0,1,1.71-1.48,1.19,1.19,0,0,1,.94.4,14.56,14.56,0,0,0,3.2,2.76,9.15,9.15,0,0,0,3.06-3.29c0-.21-.24-.31-.44-.31h-2.52c-2.52,0-5.51,0-7.93.07Zm13.28-8.17c0,3.6,0,4.31-5.61,4.31-4.54,0-5.08-.17-5.08-4.31h-3.46a1.18,1.18,0,0,1-1.21-1.27,1.23,1.23,0,0,1,1.21-1.32h3.43c0-.63,0-1.17,0-1.64,0-.78.74-1.18,1.48-1.18s1.48.4,1.48,1.21v1.61h4.74v-1.58a1.29,1.29,0,0,1,1.44-1.21,1.38,1.38,0,0,1,1.52,1.25v1.54h3.93a1.3,1.3,0,0,1,0,2.59Zm-3-.13h-4.74c0,2.12,0,2.22,2.42,2.22,1.65,0,2.25-.1,2.32-.94Z"/><path d="M674,228.67c-2-6.15-.84-12.64-.17-16.81.27-1.71.54-3.16.81-4.81.34-2.11,3.73-1.74,3.36.24-.23,1.38-.64,3-.94,4.67-.67,3.73-1.48,6.42-1.24,9,.1,1,.2,1.38.64.37.1-.24.23-.34.4-.74.87-2,3.23-.27,2.39,1.24a16.14,16.14,0,0,0-1.82,5.35c-.1.67.14,2-.47,2.58C676.14,230.52,674.6,230.45,674,228.67Zm10.26.37c-3.06-1.48-3.3-5.21.26-6.69a9.82,9.82,0,0,1,5.79-.51,5.05,5.05,0,0,0-.07-.63c-.14-1.75-.17-2.93-.17-4.34a14.66,14.66,0,0,1-6.69.17,1.54,1.54,0,1,1,1.08-2.89,12.81,12.81,0,0,0,5.58-.37,13.27,13.27,0,0,0-.51-2.83c-.3-1.74,2.59-2.22,3.16-.64a5.68,5.68,0,0,1,.41,2.53,13.72,13.72,0,0,0,1.34-.58c1.88-.94,3.56,1.79,1,2.86a24.92,24.92,0,0,1-2.59,1,28.73,28.73,0,0,0,.07,4.77c0,.57.14,1.24.2,1.88a13.92,13.92,0,0,1,4,2.59c1.61,1.51-.47,4.34-2.19,2.56a13.3,13.3,0,0,0-2-1.69C691.94,228.87,688.25,231,684.25,229Zm.23-19.9a1.48,1.48,0,1,1,.77-2.86c2.26.44,7.1-.7,8.47-1.11,2-.6,3.27,2.32.61,3S687.44,209.71,684.48,209.14Zm5.61,15.53a6.25,6.25,0,0,0-4.6,0,1,1,0,0,0-.07,2c2,.95,4.2.14,4.61-1.64Z"/><path d="M711.21,208.2c-1.75-2.16,1.54-4,2.89-2A34.52,34.52,0,0,1,718,214a62.29,62.29,0,0,1,5.92-3.7c2.28-1.28,4,1.95,1.44,3.26a50.87,50.87,0,0,0-9.55,6c-3.32,2.83-3.42,5.35-.8,6.62,2.35,1.18,7.16.31,9.17-.43,2.83-1.08,3.84,2.79.84,3.63-2.65.74-8.26,1.41-11.59-.27-4.84-2.46-4.64-7.9.8-12.24.34-.27.64-.54,1-.77A27.54,27.54,0,0,0,711.21,208.2ZM728,209.68a11.49,11.49,0,0,0-2.49-2.32c-1.62-.91-.07-2.76,1.41-2a11.08,11.08,0,0,1,3.06,2.42C731.07,209.34,728.89,211.12,728,209.68Zm3.42-2.59a11.44,11.44,0,0,0-2.55-2.19c-1.65-.87-.17-2.75,1.34-2.05a10.66,10.66,0,0,1,3.13,2.32C734.47,206.68,732.35,208.5,731.37,207.09Z"/><path d="M746.5,232.27a1.88,1.88,0,0,1-1.78-1.85,1.78,1.78,0,0,1,.64-1.31,16.47,16.47,0,0,0,5.17-12.41c0-4.67-1.71-9.28-5.11-12.13a1.88,1.88,0,0,1-.73-1.45,1.65,1.65,0,0,1,1.64-1.65,2.12,2.12,0,0,1,1.35.57c4.13,3.7,6.18,9.32,6.18,14.93s-2.12,11.29-6.25,14.86A1.75,1.75,0,0,1,746.5,232.27Z"/><path d="M939.41,76.42,864.33,0H589a4.8,4.8,0,0,0-1.7.32l67.88,69.09a14.88,14.88,0,0,1-.1,20.88L587.44,158a4.68,4.68,0,0,0,1.6.29H864.33l75-75.05A4.82,4.82,0,0,0,939.41,76.42Z" style="fill:#ffed4d"/><path d="M649.46,79.91s0-.06,0-.08a4.85,4.85,0,0,0-1.39-3.41L573,0H297.71a4.77,4.77,0,0,0-2.64.79l67.42,68.62a14.89,14.89,0,0,1-.1,20.88l-67.23,67.24a4.82,4.82,0,0,0,2.55.74H573l75-75.05A4.82,4.82,0,0,0,649.46,79.91Z" style="fill:#ffed4d"/><path d="M313.8,124.74l41.52-41.52a4.87,4.87,0,0,0,1.06-1.59,4.55,4.55,0,0,0,.26-.89,5.63,5.63,0,0,0,.1-.91,4.85,4.85,0,0,0-1.39-3.41L304,24.1,292.88,12.83h0L280.27,0H5A4.83,4.83,0,0,0,.15,4.83V153.44A4.83,4.83,0,0,0,5,158.27H280.27l12.61-12.61h0Z" style="fill:#ffed4d"/><path d="M68.75,61A20.78,20.78,0,0,0,82.09,47.62c.27-.91.17-1.75-1.07-1.79-3.3-.1-8.61.11-13.45.27a1.66,1.66,0,1,1-.07-3.32c4.44-.21,10.73-.24,15-.17,2.72,0,4.63,2.08,3.66,4.84-2.35,6.72-6.45,13.24-15.87,16.84C67.44,65.37,66.19,61.84,68.75,61ZM84.14,40.86c-1.71-.71-.37-2.72,1.18-2.15a10.23,10.23,0,0,1,3.33,2c1.31,1.41-.68,3.46-1.78,2.15A11.72,11.72,0,0,0,84.14,40.86Zm3-2.89c-1.72-.67-.47-2.69,1.11-2.19a11,11,0,0,1,3.39,1.92C93,39,91.1,41.16,90,39.88A12.64,12.64,0,0,0,87.17,38Z"/><path d="M99.57,52.69a1.61,1.61,0,0,1-1.78-1.61,1.72,1.72,0,0,1,1.78-1.72h21.11a1.67,1.67,0,1,1,0,3.33Z"/><path d="M133.12,63.18c-2.45.91-3.6-2.39-1.08-3.26,6.12-2.12,11.43-7.5,14.09-12.5.3-.58.17-1.11-.57-1.11-2.12,0-6.76.13-9.72.2-2,.06-2.15-3.16,0-3.26,2.46-.1,7.4-.17,10.79-.17,3,0,4.74,1.91,3.43,4.2A54,54,0,0,1,146.33,53c2.79,1.68,7.06,4.5,8.61,6.65,1.34,1.88-1.18,4.51-2.76,2.52a34.79,34.79,0,0,0-7.87-6.75A28.35,28.35,0,0,1,133.12,63.18Z"/><path d="M176.48,63.38c.07,2.72-3.76,2.83-3.63.14.24-5.45.34-18.63.2-23.47-.06-2.28,3.57-2.25,3.5,0,0,1.64-.07,4.57-.1,7.86a2.88,2.88,0,0,1,.57,0c1.88.3,6.25,1.37,8.07,2.92s-.17,4.4-2.09,3a21,21,0,0,0-6.55-2.72C176.42,55.82,176.42,60.66,176.48,63.38Z"/><path d="M223.28,50.71a2.22,2.22,0,0,1-1.11-.37A61.4,61.4,0,0,1,211.88,41c-.37-.43-.67-.67-1-.67s-.58.24-.91.67a64.19,64.19,0,0,1-10.29,10.12,2.47,2.47,0,0,1-1.51.57A1.8,1.8,0,0,1,196.35,50a1.7,1.7,0,0,1,.91-1.45c3.63-2.11,8-6.58,10.42-9.78a3.7,3.7,0,0,1,3-1.58,4.47,4.47,0,0,1,3.23,1.55,48.33,48.33,0,0,0,10.72,8.77,1.32,1.32,0,0,1,.74,1.21A2.15,2.15,0,0,1,223.28,50.71Zm-6.53,14.18c-1.95.07-3.89.11-5.81.11s-3.77,0-5.65-.11c-2.45-.1-3.7-1.47-3.8-3.42,0-.61,0-1.32,0-2,0-.94,0-1.92,0-2.69.07-1.58,1-3.23,3.73-3.33,1.42,0,3.13-.07,4.95-.07,2.21,0,4.6,0,6.75.07a3.49,3.49,0,0,1,3.57,3c0,.7.06,1.54.06,2.42s0,1.71-.06,2.55A3.65,3.65,0,0,1,216.75,64.89ZM205.53,49.73a1.48,1.48,0,1,1,0-2.95h11.29a1.48,1.48,0,1,1,0,2.95Zm11.73,9.62c0-2.52-.07-3.13-1.61-3.16-1.25,0-2.69-.07-4.21-.07-1.81,0-3.66,0-5.24.07s-1.58,1.07-1.58,3c0,2.48.3,2.82,1.61,2.85s3,.07,4.64.07,3.3,0,4.84-.07S217.26,60.86,217.26,59.35Z"/><path d="M235,53.3c-2.49,2.59-3.12,2.89-3.76,2.89a1.66,1.66,0,0,1-1.58-1.65,1.5,1.5,0,0,1,.7-1.28,22.91,22.91,0,0,0,7-8.57,1.43,1.43,0,0,1,1.28-.87,1.79,1.79,0,0,1,1.78,1.68c0,.57-.37,1.21-2.25,3.9l-.37,15.26a1.54,1.54,0,0,1-1.61,1.48,1.43,1.43,0,0,1-1.55-1.41v-.07Zm14.69-5.45c-.2.88-.47,1.92-.67,2.56,1.21,0,2.35,0,3.33.06a3.36,3.36,0,0,1,3.22,2.89c.07,1.52.14,4.78.14,7.06,0,.71,0,1.31,0,1.75a3.46,3.46,0,0,1-3.42,3.3c-1.18.06-2.49.1-3.74.1s-2.52,0-3.66-.1c-2.15-.14-3.46-1.45-3.53-3.26,0-.51,0-1.15,0-1.82,0-2.32.06-5.35.13-6.79a3.25,3.25,0,0,1,3.4-3.13c.43,0,.9,0,1.34,0,0-.07,0-.1,0-.17.16-.77.3-1.44.43-2.42h-4.5a1.38,1.38,0,1,1,0-2.76h12.57V45c0-2,0-2.42-1.82-2.45-2.68,0-6.08-.07-9.37-.07-2.73,0-5.35,0-7.4.07-1.81,0-1.92.61-2,1.45v1.44a1.49,1.49,0,0,1-1.65,1.35c-1.64,0-1.68-1.18-1.68-2.49,0-1.78.07-4.3,3.6-4.34,2.66,0,5.48-.1,8.34-.1V37.5a1.75,1.75,0,0,1,3.49,0v2.35c2.69,0,5.31.07,7.83.1,1.82,0,3.87.94,3.94,3.09,0,.37,0,.64,0,1,0,1-.1,2.21-1.78,2.21a2.73,2.73,0,0,1-.5-.06,1.12,1.12,0,0,1,0,.33,1.34,1.34,0,0,1-1.41,1.38ZM244.15,59c0,1,0,2,0,2.46.07,1.34.81,1.34,4.44,1.34,3,0,4.1,0,4.17-1.38V59Zm8.64-2.52c0-2.49,0-3.43-1.48-3.49-.84,0-1.88-.07-2.89-.07s-2,0-2.76.07a1.32,1.32,0,0,0-1.41,1.37c0,.44,0,1.21-.07,2.12Z"/><path d="M423.26,55.65c-2.62,0-5.21-.07-7.56-.17a3.5,3.5,0,0,1-3.7-3.39c0-1.05-.07-2.09-.07-3.13s0-2,.07-2.89a3.51,3.51,0,0,1,3.63-3.46c2.32-.07,4.94-.1,7.63-.1V37.73a1.54,1.54,0,0,1,1.68-1.48,1.58,1.58,0,0,1,1.72,1.48v4.78c2.72,0,5.41,0,7.83.1A3.69,3.69,0,0,1,438,45.8c.07.81.1,1.82.1,2.86s0,2.38-.1,3.39a3.68,3.68,0,0,1-3.63,3.43c-2.45.1-5,.17-7.66.17v9c0,.9-.85,1.37-1.72,1.37a1.5,1.5,0,0,1-1.68-1.37Zm0-10.12c-2.35,0-4.57.07-6.39.1A1.55,1.55,0,0,0,415.23,47c0,.64-.07,1.45-.07,2.22,0,2.12,0,3.16,1.75,3.23s4.06.17,6.35.17Zm3.4,7.09c2.25,0,4.47-.06,6.45-.13,1.61-.07,1.68-.81,1.68-3.43s-.07-3.39-1.71-3.43c-1.85-.06-4.11-.1-6.42-.1Z"/><path d="M446.62,66.07A1.46,1.46,0,0,1,445,64.69v-.06c.23-6.16.17-16.78.23-24.07,0-3.3,2.32-3.3,5.75-3.3,1.28,0,2.62,0,3.26,0A2.91,2.91,0,0,1,457.31,40c0,1.18.07,2.39.07,3.57,0,4.23-.07,5.07-6.69,5.07-.87,0-1.71,0-2.32-.07v3c0,3.63,0,8.34-.13,13.08A1.48,1.48,0,0,1,446.62,66.07Zm7.8-24.24c0-.37,0-.7,0-1-.07-.94-.24-1-2.93-1s-3,.1-3.06,1.31c0,.24,0,.51,0,.77Zm-6.05,2.22V46.1c.47,0,1.48,0,2.49,0,3.26,0,3.49-.14,3.53-1.08,0-.3,0-.64,0-1Zm13,18.29c-.9.07-1.91.1-2.89.1s-2,0-2.92-.1a3.26,3.26,0,0,1-3.33-3.13c0-.47,0-1,0-1.61,0-1.51.06-3.26.13-4.6a3.11,3.11,0,0,1,3.16-3c.87,0,1.82-.06,2.72-.06,1.11,0,2.22,0,3.2.06a3.18,3.18,0,0,1,3.06,2.76c.1,1.18.13,2.66.13,4,0,.88,0,1.68,0,2.39A3.33,3.33,0,0,1,461.41,62.34Zm-6.55-5.18c0,2.63,0,2.66,3.49,2.66,2.49,0,3.47,0,3.53-1.35,0-.37,0-.84,0-1.31Zm7-2.38c0-.41-.06-.74-.06-1.05-.07-1.24-.71-1.34-3-1.34-.84,0-1.74,0-2.55,0A1.3,1.3,0,0,0,455,53.77c0,.3-.07.64-.07,1Zm4.71-6.19c-4,0-6.76,0-6.86-3,0-.67,0-1.41,0-2.11,0-1.18,0-2.39.07-3.57a2.84,2.84,0,0,1,3-2.65c.64,0,2.05,0,3.36,0,1,0,1.92,0,2.49,0,2.48.13,3.53,1.48,3.53,3v2.52c0,5,.06,10.25.06,14.52,0,1.58,0,3,0,4.17,0,2.39-1.18,4.47-5,4.47-2.35,0-3.56-.3-3.56-1.78A1.36,1.36,0,0,1,465,62.71c.1,0,.16,0,.27,0a12,12,0,0,0,1.78.2c1.11,0,2-.4,2-2,0-1.34.07-2.79.07-4.3,0-2.25,0-4.57,0-6.69V48.52C468.44,48.56,467.56,48.59,466.59,48.59ZM469,41.83c0-2-.07-2.08-3.16-2.08-2.69,0-3.06,0-3.13,1.08,0,.3,0,.67,0,1Zm.06,2.22h-6.38c0,.37,0,.71,0,1,0,.94.14,1.08,3.7,1.08,1.11,0,2.18,0,2.65,0Z"/><path d="M504.64,50.71a2.25,2.25,0,0,1-1.11-.37A61.74,61.74,0,0,1,493.25,41c-.37-.43-.68-.67-1-.67s-.57.24-.91.67a64.55,64.55,0,0,1-10.28,10.12,2.47,2.47,0,0,1-1.51.57A1.8,1.8,0,0,1,477.72,50a1.71,1.71,0,0,1,.9-1.45c3.63-2.11,8-6.58,10.42-9.78a3.72,3.72,0,0,1,3-1.58,4.45,4.45,0,0,1,3.22,1.55A48.61,48.61,0,0,0,506,47.48a1.34,1.34,0,0,1,.74,1.21A2.15,2.15,0,0,1,504.64,50.71Zm-6.52,14.18c-1.95.07-3.9.11-5.81.11s-3.77,0-5.65-.11c-2.46-.1-3.7-1.47-3.8-3.42,0-.61,0-1.32,0-2,0-.94,0-1.92,0-2.69.07-1.58,1-3.23,3.73-3.33,1.41,0,3.13-.07,4.94-.07,2.22,0,4.61,0,6.76.07a3.47,3.47,0,0,1,3.56,3c0,.7.07,1.54.07,2.42s0,1.71-.07,2.55A3.64,3.64,0,0,1,498.12,64.89ZM486.89,49.73a1.48,1.48,0,1,1,0-2.95h11.3a1.48,1.48,0,1,1,0,2.95Zm11.74,9.62c0-2.52-.07-3.13-1.62-3.16-1.24,0-2.69-.07-4.2-.07-1.82,0-3.66,0-5.24.07s-1.58,1.07-1.58,3c0,2.48.3,2.82,1.61,2.85s3,.07,4.64.07,3.29,0,4.84-.07S498.63,60.86,498.63,59.35Z"/><path d="M516.41,53.3c-2.49,2.59-3.13,2.89-3.77,2.89a1.67,1.67,0,0,1-1.58-1.65,1.49,1.49,0,0,1,.71-1.28,22.91,22.91,0,0,0,7-8.57,1.41,1.41,0,0,1,1.28-.87,1.8,1.8,0,0,1,1.78,1.68c0,.57-.37,1.21-2.25,3.9l-.37,15.26a1.55,1.55,0,0,1-1.62,1.48A1.42,1.42,0,0,1,516,64.73v-.07Zm14.69-5.45c-.2.88-.47,1.92-.68,2.56,1.21,0,2.36,0,3.33.06A3.37,3.37,0,0,1,537,53.36c.07,1.52.13,4.78.13,7.06,0,.71,0,1.31,0,1.75a3.47,3.47,0,0,1-3.43,3.3c-1.17.06-2.48.1-3.73.1s-2.52,0-3.66-.1c-2.15-.14-3.47-1.45-3.53-3.26,0-.51,0-1.15,0-1.82,0-2.32.07-5.35.14-6.79a3.25,3.25,0,0,1,3.39-3.13c.44,0,.91,0,1.35,0,0-.07,0-.1,0-.17.17-.77.3-1.44.44-2.42h-4.51a1.38,1.38,0,1,1,0-2.76h12.58V45c0-2,0-2.42-1.82-2.45-2.69,0-6.08-.07-9.38-.07-2.72,0-5.34,0-7.39.07-1.82,0-1.92.61-1.95,1.45v1.44a1.49,1.49,0,0,1-1.65,1.35c-1.65,0-1.68-1.18-1.68-2.49,0-1.78.07-4.3,3.6-4.34,2.65,0,5.48-.1,8.33-.1V37.5a1.75,1.75,0,0,1,3.5,0v2.35c2.69,0,5.31.07,7.83.1,1.82,0,3.87.94,3.93,3.09a8,8,0,0,1,0,1c0,1-.1,2.21-1.78,2.21a3,3,0,0,1-.51-.06.86.86,0,0,1,0,.33,1.35,1.35,0,0,1-1.42,1.38ZM525.52,59c0,1,0,2,0,2.46.07,1.34.81,1.34,4.44,1.34,3,0,4.1,0,4.17-1.38V59Zm8.64-2.52c0-2.49,0-3.43-1.48-3.49-.84,0-1.89-.07-2.89-.07s-2,0-2.76.07a1.32,1.32,0,0,0-1.41,1.37c0,.44,0,1.21-.07,2.12Z"/><path d="M714.79,44.76c-2.75,0-5.54-.07-8.33-.07A44.83,44.83,0,0,0,708,54a35.72,35.72,0,0,0,2.69-6.16A1.32,1.32,0,0,1,712,47a1.9,1.9,0,0,1,1.95,1.71c0,1.08-2.59,6.32-4.54,9,2,4,3.23,4.27,3.36,4.27.57,0,1-.8,1.68-2.62a1.42,1.42,0,0,1,1.38-1.07A1.8,1.8,0,0,1,717.62,60c0,.57-1.55,5.65-4.91,5.65-1,0-3.23-.47-5.58-5.18-4.64,4.91-9,5.75-9.35,5.75a1.59,1.59,0,0,1-1.64-1.61A1.64,1.64,0,0,1,697.41,63a16.76,16.76,0,0,0,8.34-5.72,50.64,50.64,0,0,1-2.52-12.53c-2.79,0-5.55,0-8.17,0a1.29,1.29,0,0,0-1.38,1.38v2c.81,0,1.68,0,2.56,0s1.68,0,2.32,0A3.16,3.16,0,0,1,701.82,51c0,.41.06,1.14.06,2a14.22,14.22,0,0,1-.33,3.62,5.41,5.41,0,0,1-5.48,3.7c-1.65,0-2.62-.3-2.62-1.81,0-.81.43-1.58,1.24-1.58a1.5,1.5,0,0,1,.37,0,6.35,6.35,0,0,0,1.18.14c1.81,0,2.52-.84,2.52-4,0-2.12,0-2.15-2.89-2.15-.71,0-1.45,0-2.19,0-.06,4.44-.47,9.25-3.06,13.45a2.24,2.24,0,0,1-1.85,1.11,1.52,1.52,0,0,1-1.64-1.41,1.9,1.9,0,0,1,.33-1c2.49-3.87,2.93-8.68,2.93-13.11,0-1.79-.07-3.53-.1-5.11v-.07c0-1.78,1.07-3.16,3.39-3.16,3,0,6.12,0,9.28,0-.07-1.05-.17-3.9-.17-4.07a1.58,1.58,0,0,1,1.75-1.41,1.51,1.51,0,0,1,1.65,1.51c0,1.28,0,2.59.1,4,2.92,0,5.78,0,8.47,0a1.39,1.39,0,0,1,1.34,1.55,1.35,1.35,0,0,1-1.27,1.51Zm-4.1-3.87a12.17,12.17,0,0,0-2.86-1.81,1.26,1.26,0,0,1-.8-1.18,1.29,1.29,0,0,1,1.34-1.28,11.08,11.08,0,0,1,4.17,2,1.6,1.6,0,0,1,.64,1.21,1.45,1.45,0,0,1-2.49,1.07Z"/><path d="M748.88,55.72l-10-.17a37.55,37.55,0,0,0,10.9,6.25,1.45,1.45,0,0,1,1,1.31,1.91,1.91,0,0,1-1.91,1.78c-1.45,0-7.4-3.56-11.33-7.26l.07,7.37v0A1.41,1.41,0,0,1,736,66.34,1.39,1.39,0,0,1,734.49,65v0l.07-7.17c-4,3.87-10.12,7.4-11.43,7.4a1.64,1.64,0,0,1-1.68-1.51,1.55,1.55,0,0,1,1.07-1.35,33,33,0,0,0,10.69-6.82l-9.78.17h0a1.42,1.42,0,1,1,0-2.83l11.16,0V50.67c-1.88,0-3.73-.06-5.55-.1-2.38-.06-3.66-1.31-3.73-3.09,0-1-.06-2.35-.06-3.6s0-2.52.06-3.39c.07-1.45,1-3,3.63-3,1.42,0,3.7-.06,6.19-.06,3,0,6.22,0,8.37.06A3.36,3.36,0,0,1,747,40.25c.07.81.1,2,.1,3.27,0,1.44,0,2.92-.1,3.9a3.49,3.49,0,0,1-3.66,3.15c-1.88.07-3.83.1-5.78.1v2.26l11.36,0a1.42,1.42,0,1,1,0,2.83ZM734.59,39.85c-1.88,0-3.63,0-4.77.07-1.61,0-1.61,1.07-1.61,2.82h6.38Zm0,5.28h-6.38c0,2.42.13,2.89,1.64,3,1.25,0,3,0,4.74,0Zm9.35-2.39c0-2.22,0-2.79-1.58-2.82-1.11,0-2.93-.07-4.84-.07v2.89Zm-6.42,2.39v3c1.78,0,3.53,0,4.87,0,1.55,0,1.55-.78,1.55-3Z"/><path d="M780.48,56.93l-6.29-.07c0,2.15,0,4,0,4.4.06,1.25,1.14,1.38,2.79,1.38,2.15,0,3.19-.54,3.19-2.52a1.44,1.44,0,0,1,1.55-1.51,1.71,1.71,0,0,1,1.81,1.85c0,4-2.25,5.17-6.82,5.17-1.82,0-5.65,0-5.65-3.9,0-.43,0-2.52,0-4.9l-3.63,0c-.6,4.1-2.75,7.9-9.44,9.28a4.41,4.41,0,0,1-.57.07,1.64,1.64,0,0,1-1.75-1.68A1.42,1.42,0,0,1,756.88,63c5.07-.71,6.79-3.09,7.33-6.15l-5.35.1h0a1.41,1.41,0,0,1-1.55-1.45,1.54,1.54,0,0,1,1.58-1.61l5.58,0V50H764a1.49,1.49,0,0,1-1.41-.77c-2.63,1.95-5.31,3.22-6,3.22A1.6,1.6,0,0,1,755,50.78a1.54,1.54,0,0,1,1-1.45c7-3,10.75-8.57,10.75-8.94s-.2-.34-.53-.34c-1.25,0-2.83.07-4.74.07a1.43,1.43,0,0,1,0-2.86h4.74c2.15,0,3.86,0,4.3,1.89a1.19,1.19,0,0,1,.91.47c.43.5.87,1,1.34,1.51a17.44,17.44,0,0,0,2.49-2.93,1.26,1.26,0,0,1,1.11-.63,1.82,1.82,0,0,1,1.75,1.68c0,1.14-2.59,3.32-3.3,3.9.54.5,1,.94,1.62,1.41a19.19,19.19,0,0,0,3.09-3.1,1.3,1.3,0,0,1,1.07-.57,1.87,1.87,0,0,1,1.75,1.72c0,.74-1.11,1.91-3.53,3.7a24.86,24.86,0,0,0,4.47,2.38,1.57,1.57,0,0,1,1.08,1.41,1.83,1.83,0,0,1-1.88,1.75c-1.38,0-4-1.75-6.15-3.43v.07A1.46,1.46,0,0,1,774.8,50h-.54c0,1,0,2.42,0,3.93l6.26,0a1.52,1.52,0,0,1,1.61,1.55,1.46,1.46,0,0,1-1.58,1.51ZM760,45a14,14,0,0,0-2.92-2.32,1.18,1.18,0,0,1-.68-1,1.64,1.64,0,0,1,1.69-1.48c1.34,0,4.13,2.39,4.23,2.49a1.6,1.6,0,0,1,.44,1A1.83,1.83,0,0,1,761,45.43,1.28,1.28,0,0,1,760,45Zm14.72,2a49,49,0,0,1-5-5.11A35.72,35.72,0,0,1,765.18,47ZM771.1,53.9c0-1.51,0-2.92,0-3.93H767.6v3.16c0,.27,0,.5,0,.77Z"/><path d="M806,52a12.83,12.83,0,0,0,1.85,4.3A29.54,29.54,0,0,0,813,53a1.57,1.57,0,0,1,1-.37,1.79,1.79,0,0,1,1.75,1.71,1.62,1.62,0,0,1-.87,1.38,32.83,32.83,0,0,1-5.11,2.66,17.1,17.1,0,0,0,7.36,3.69,1.51,1.51,0,0,1,1.14,1.55,1.78,1.78,0,0,1-1.75,1.85,17.3,17.3,0,0,1-13.31-12.64A25.71,25.71,0,0,1,801,54.64v6.12c1.14-.37,2.18-.74,3.06-1.11a2.28,2.28,0,0,1,.77-.17,1.42,1.42,0,0,1,1.45,1.38,1.8,1.8,0,0,1-1.31,1.61A56.52,56.52,0,0,1,792.51,66a1.61,1.61,0,0,1-1.78-1.58,1.76,1.76,0,0,1,1.65-1.68c1.85-.27,3.73-.67,5.48-1.11v-4.9c-1.79,1.07-6.69,3.59-8,3.59a1.59,1.59,0,0,1-1.65-1.54,1.5,1.5,0,0,1,1.14-1.45A34,34,0,0,0,799.91,52h-9.08a1.39,1.39,0,0,1-1.48-1.38,1.38,1.38,0,0,1,1.48-1.38l10.82,0V47.21l-7.53,0a1.31,1.31,0,0,1-1.37-1.31,1.29,1.29,0,0,1,1.37-1.32h7.5v-2l-9.41,0a1.34,1.34,0,1,1,0-2.68h9.41V38a1.47,1.47,0,0,1,1.65-1.42A1.51,1.51,0,0,1,805,38v2h9.51a1.34,1.34,0,1,1,0,2.68l-9.51,0v2h7.6a1.28,1.28,0,0,1,1.31,1.32,1.25,1.25,0,0,1-1.31,1.31l-7.63,0V49.3l11,0a1.33,1.33,0,0,1,1.41,1.38A1.35,1.35,0,0,1,815.91,52Z"/><path d="M837.86,40.66c-.37-.41-.64-.61-.88-.61s-.47.2-.8.61a52.18,52.18,0,0,1-10.79,10.08,2.52,2.52,0,0,1-1.42.47,1.75,1.75,0,0,1-.77-3.36c3.9-2,8.07-6.12,10.62-9.44a3.75,3.75,0,0,1,2.93-1.62,4.35,4.35,0,0,1,3.16,1.62,39.56,39.56,0,0,0,10.89,8.4,1.58,1.58,0,0,1,.91,1.44,2,2,0,0,1-2,2C847.91,50.24,841.59,44.83,837.86,40.66Zm-1.72,14.49a54.32,54.32,0,0,1-2.45,6.55c3.09-.23,6.15-.6,9.08-1a22.37,22.37,0,0,0-2.46-1.95,1.37,1.37,0,0,1-.7-1.14,1.52,1.52,0,0,1,1.58-1.38c2,0,8,5.61,8,7.6a1.91,1.91,0,0,1-1.88,1.81,1.52,1.52,0,0,1-1.38-.91A16.71,16.71,0,0,0,844.85,63a136.64,136.64,0,0,1-18.09,2.28,1.59,1.59,0,0,1-1.54-1.68,1.41,1.41,0,0,1,1.38-1.51c1.17,0,2.38-.07,3.59-.13a39.12,39.12,0,0,0,2.39-6.76l-6.35,0a1.43,1.43,0,0,1-1.58-1.44,1.53,1.53,0,0,1,1.58-1.58h21.34a1.52,1.52,0,0,1,1.62,1.54,1.49,1.49,0,0,1-1.62,1.48ZM832.31,49a1.48,1.48,0,0,1-1.58-1.51,1.5,1.5,0,0,1,1.58-1.51H842a1.5,1.5,0,0,1,1.58,1.51A1.48,1.48,0,0,1,842,49Z"/><path d="M92.3,112.54a8.28,8.28,0,0,1-8.51-8.64,17.89,17.89,0,0,1,2.32-8c1.38-2.55,6.49-9,8.71-9a2.12,2.12,0,0,1,2.05,2,1.44,1.44,0,0,1-.74,1.28c-4,2.59-7.19,7-7.19,7.73,0,.07,0,.1.1.1s.1,0,.2-.06a8.73,8.73,0,0,1,3.7-.84,7.32,7.32,0,0,1,7.76,7.49C100.7,109.11,97.17,112.54,92.3,112.54Zm.1-12.47a4.75,4.75,0,0,0-5,4.7c0,2.86,2.35,4.37,4.84,4.37,3.36,0,5-2.32,5-4.6A4.45,4.45,0,0,0,92.4,100.07Z"/><path d="M104.91,113.58a1.62,1.62,0,0,1-1.69-1.51,1.55,1.55,0,0,1,.14-.64c1.55-3.87,8.6-22.36,9.34-25.05a1.43,1.43,0,0,1,1.45-1.07,1.67,1.67,0,0,1,1.75,1.48,1.94,1.94,0,0,1-.1.54c-.94,2.35-7.8,20.67-9.45,25.21A1.49,1.49,0,0,1,104.91,113.58Z"/><path d="M127.36,112.33a1.86,1.86,0,0,1-2-1.84c0-3.13.13-10.29.13-14.73,0-4.7-.17-5.07-1.31-5.07h-.47A1.67,1.67,0,0,1,122,88.91a2,2,0,0,1,1.74-2.06c.68,0,.95,0,1.65,0a3.58,3.58,0,0,1,3.9,3.6c0,.43,0,1,0,1.78,0,2.69-.1,7.19-.1,12,0,2.08,0,4.2.07,6.29v.06A1.81,1.81,0,0,1,127.36,112.33Z"/><path d="M147.16,96.4c2.05-.07,3-1.41,3-3.39a3.21,3.21,0,0,0-3.49-3,4.79,4.79,0,0,0-3.56,1.75,1.69,1.69,0,0,1-1.18.5,2,2,0,0,1-1.88-1.88c0-1.88,3.86-3.83,6.79-3.83,4.27,0,7,2.72,7,6.49A5.4,5.4,0,0,1,151.13,98a7.06,7.06,0,0,1,4,6.49c0,4.73-3.63,8.1-8.71,8.1s-8-3-8-4.54a2.08,2.08,0,0,1,2-2,1.78,1.78,0,0,1,1.31.64,5.62,5.62,0,0,0,4.91,2.32,4.69,4.69,0,0,0,4.84-4.57c0-3.43-2.05-4.47-4.44-4.47h-.3c-.2,0-.37,0-.51,0a1.82,1.82,0,0,1-1.78-1.78,1.76,1.76,0,0,1,1.75-1.75Z"/><path d="M169.82,105.65c-2.73,0-4.21-.11-5.69-.11-1,0-2,0-3.39.11a1.72,1.72,0,0,1-1.71-1.89,1.69,1.69,0,0,1,1.58-1.85h.06c1.18,0,2.56.07,4,.07,1.75,0,3.56,0,5.18-.07h.06a1.7,1.7,0,0,1,1.68,1.85,1.74,1.74,0,0,1-1.71,1.89Z"/><path d="M183.9,112.33a1.86,1.86,0,0,1-2-1.84c0-3.13.13-10.29.13-14.73,0-4.7-.17-5.07-1.31-5.07h-.47a1.67,1.67,0,0,1-1.71-1.78,2,2,0,0,1,1.74-2.06c.68,0,.95,0,1.65,0a3.58,3.58,0,0,1,3.9,3.6c0,.43,0,1,0,1.78,0,2.69-.1,7.19-.1,12,0,2.08,0,4.2.07,6.29v.06A1.8,1.8,0,0,1,183.9,112.33Z"/><path d="M208.91,110.49v.06a1.65,1.65,0,0,1-1.78,1.72,1.74,1.74,0,0,1-1.85-1.78c0-1.18,0-2.56,0-3.94-3.26,0-6.72,0-7.06,0-2.25,0-3.39-1.11-3.39-2.59a4.63,4.63,0,0,1,.94-2.59c2-2.86,7.56-10.62,10-14a1.62,1.62,0,0,1,1.38-.74,2,2,0,0,1,2,1.91,2.07,2.07,0,0,1-.48,1.28c-9.84,12.81-9.84,12.84-9.84,13.08,0,.4.53.4,1.37.4,1.15,0,3.16-.07,5.15-.1,0-1.35,0-2.62,0-3.63,0-.74,0-1.35,0-1.78v-.14a1.76,1.76,0,0,1,1.81-1.81,1.73,1.73,0,0,1,1.75,1.91c0,1.58-.1,2.86-.1,5.35l2.32-.07h.1a1.62,1.62,0,0,1,1.71,1.65,1.81,1.81,0,0,1-1.95,1.75c-.4,0-1.21,0-2.18,0C208.81,107.63,208.88,109,208.91,110.49Z"/><path d="M433.16,104.74c0,5.71-4.68,7.83-8.91,7.83-4.74,0-8.71-2.79-8.71-7.83a7.22,7.22,0,0,1,4.17-6.62,5.82,5.82,0,0,1-3-5.11c0-4.64,3.9-6.52,7.6-6.52,5,0,7.6,3.12,7.6,6.52a5.91,5.91,0,0,1-3,5.11A6.9,6.9,0,0,1,433.16,104.74ZM424.35,100c-3.33,0-5.18,2.22-5.18,4.7,0,2.83,2.56,4.44,5.18,4.44s5.18-1.61,5.18-4.44C429.53,103.12,428.85,100,424.35,100Zm0-10.22c-2.32,0-4,1.55-4,3.36,0,2.42,1.75,3.46,3.9,3.46,4,0,4.1-2.75,4.1-3.46C428.35,90.52,425.73,89.78,424.35,89.78Z"/><path d="M468.85,109.41c0,2-1.78,4.51-6.45,4.51-2.45,0-4-.38-4-2a1.53,1.53,0,0,1,1.55-1.61,1.58,1.58,0,0,1,.37,0,12.7,12.7,0,0,0,2.28.24c1.55,0,2.86-.44,2.86-2s0-3.53,0-5.52H454.47a16.27,16.27,0,0,1-6.32,10.66,2,2,0,0,1-1.18.4,1.77,1.77,0,0,1-1.78-1.68,1.53,1.53,0,0,1,.74-1.27c5-3.47,5.81-9,5.81-14.53,0-2.62-.16-5.24-.16-7.66s1.74-3.36,4-3.4c1.51,0,3.43-.06,5.28-.06,1.34,0,2.69,0,3.83.06,2.28.11,4,1.18,4.07,3.4v2.39c0,3.16,0,6.52,0,9.51,0,1.31,0,2.55,0,3.7l.06,4.74Zm-3.32-13.65H455c0,1.48,0,3-.13,4.47h10.69Zm0-2.89c0-1.17,0-2.32-.07-3.33S465,88.4,461,88.4c-1.71,0-3.46,0-4.87.07-.78,0-1.25.3-1.25,1.07,0,1,0,2.19,0,3.33Z"/><path d="M484.15,108.33a1.77,1.77,0,0,1,2.79-2.18c2.86,2.92,8.3,2.69,13.38,1.24,2.79-.77,3.6,2.86.87,3.7C494.54,113.18,486.47,111.6,484.15,108.33Zm3.76-13.71c-2.65.5-3.09-3.06-.1-3.5a35.92,35.92,0,0,1,10.73.1c2.82.61,2.08,4.07-.64,3.5A25.61,25.61,0,0,0,487.91,94.62Zm13.85-3.29A11.68,11.68,0,0,0,499.28,89c-1.62-.91-.07-2.76,1.41-2a11,11,0,0,1,3.06,2.39C504.89,91,502.7,92.77,501.76,91.33Zm1.35-4.44c-1.65-.88-.14-2.79,1.38-2.09a10.93,10.93,0,0,1,3.12,2.32c1.18,1.52-.94,3.37-1.91,1.95A11.58,11.58,0,0,0,503.11,86.89Z"/><path d="M536.86,98.45c4.17,3.67,2.38,10.39-4.2,13.11a23,23,0,0,1-6.63,2c-2.69.37-3.53-3-.64-3.39a18.3,18.3,0,0,0,6-1.72c4-2.05,5-5.21,3.43-7.26-2.86-3.7-10.32-1.31-14,2.93-1.18,1.34-.54.74-1.38,1.74-1.65,2-5.14.61-3.13-2,.67-.87.88-.7,2.15-2.18,1.58-1.82,1.89-2.09,3.6-4s4.14-5,5.38-6.75c.27-.37,0-.57-.3-.41a17.86,17.86,0,0,1-5,1.92c-2.72.64-3.49-3.09-.6-3.36a36,36,0,0,0,5.68-1.35c1.85-.67,2-.74,3-.57,1.81.31,3.16,2.09,1.41,3.87-2.25,2.32-5.21,5.61-7.29,7.73C527.75,95.93,533.73,95.7,536.86,98.45Z"/><path d="M709.52,112.33a1.87,1.87,0,0,1-2-1.85c0-3.12.14-10.28.14-14.72,0-4.71-.17-5.08-1.31-5.08h-.47a1.67,1.67,0,0,1-1.72-1.78,2,2,0,0,1,1.75-2.05c.67,0,.94,0,1.65,0a3.58,3.58,0,0,1,3.9,3.6c0,.43,0,1,0,1.78,0,2.69-.1,7.19-.1,12,0,2.08,0,4.2.07,6.28v.07A1.81,1.81,0,0,1,709.52,112.33Z"/><path d="M721.05,103.83c-.14-1.45-.2-2.86-.2-4.27s.06-2.59.16-4c.47-5.85,3.67-9.07,8.24-9.07s7.66,3.09,8.2,8.7c.14,1.48.24,3,.24,4.41,0,3.79-.31,12.94-8.44,12.94C724.78,112.57,721.58,109.48,721.05,103.83Zm12.5.13a36.1,36.1,0,0,0,.3-4.74c0-2.59,0-9.24-4.6-9.24-2.35,0-4.13,2.15-4.47,5.75-.1,1.24-.17,2.48-.17,3.69a34.49,34.49,0,0,0,.24,4.21c.4,3.43,2.21,5.41,4.4,5.41S733.08,107.16,733.55,104Z"/><path d="M773.76,109.41c0,2-1.79,4.5-6.46,4.5-2.45,0-4-.37-4-2a1.54,1.54,0,0,1,1.55-1.61,1.5,1.5,0,0,1,.37,0,13.67,13.67,0,0,0,2.29.23c1.54,0,2.85-.43,2.85-1.94s0-3.53,0-5.52H759.37a16.27,16.27,0,0,1-6.32,10.66,1.93,1.93,0,0,1-1.18.4,1.77,1.77,0,0,1-1.78-1.68,1.53,1.53,0,0,1,.74-1.28c5-3.46,5.82-9,5.82-14.52,0-2.62-.17-5.24-.17-7.66s1.75-3.36,4-3.4c1.51,0,3.43-.06,5.28-.06,1.34,0,2.69,0,3.83.06,2.29.1,4,1.18,4.07,3.4v2.38c0,3.16,0,6.53,0,9.52,0,1.31,0,2.55,0,3.69l.07,4.75Zm-3.33-13.65H759.87c0,1.48,0,3-.13,4.47h10.69Zm0-2.89c0-1.18,0-2.32-.07-3.33s-.5-1.14-4.44-1.14c-1.71,0-3.46,0-4.87.07-.77,0-1.25.3-1.25,1.07,0,1,0,2.19,0,3.33Z"/><path d="M789.05,108.33a1.77,1.77,0,0,1,2.79-2.18c2.86,2.92,8.3,2.69,13.38,1.24,2.79-.77,3.6,2.86.87,3.7C799.44,113.17,791.37,111.59,789.05,108.33Zm3.77-13.71c-2.66.5-3.1-3.06-.11-3.5a35.92,35.92,0,0,1,10.73.1c2.82.61,2.08,4.07-.64,3.5A25.56,25.56,0,0,0,792.82,94.62Zm13.85-3.3A12,12,0,0,0,804.18,89c-1.62-.9-.07-2.75,1.41-2a10.78,10.78,0,0,1,3.06,2.39C809.79,91,807.61,92.77,806.67,91.32ZM808,86.89c-1.65-.88-.13-2.79,1.38-2.09a10.93,10.93,0,0,1,3.12,2.32c1.18,1.51-.94,3.36-1.91,1.95A11.58,11.58,0,0,0,808,86.89Z"/><path d="M841.76,98.45c4.17,3.66,2.39,10.39-4.2,13.11a23.07,23.07,0,0,1-6.63,2c-2.68.37-3.52-3-.63-3.4a18.08,18.08,0,0,0,6-1.71c4-2.05,5-5.21,3.43-7.26-2.86-3.7-10.32-1.31-14,2.92-1.18,1.35-.54.74-1.38,1.75-1.65,2-5.14.61-3.13-2,.68-.87.88-.7,2.16-2.18,1.58-1.82,1.88-2.09,3.59-4s4.14-5,5.38-6.75c.27-.37,0-.58-.3-.41a17.8,17.8,0,0,1-5,1.92c-2.73.64-3.5-3.09-.61-3.36a36,36,0,0,0,5.68-1.35c1.85-.67,2-.74,3-.57,1.81.3,3.16,2.09,1.41,3.87-2.25,2.32-5.21,5.61-7.29,7.73C832.65,95.93,838.63,95.69,841.76,98.45Z"/></svg>