<svg xmlns="http://www.w3.org/2000/svg" viewBox="0 0 275.5 185"><title>boost</title><polygon points="56 75 48 84 50 99 54 118 45 122 40 108 31 151 18 156 11 180 26.55 174.5 56 185 74 175 72.92 138.82 74 108 78.26 103.43 73.5 90.5 80.9 81.5 56 75" style="fill:#ffed4d"/><path d="M78.5,104.5s-3-2-5,1-3,12-3,16,2,18,2,24v26s-1,12-17,11-25-12-35-10-11,5-11,5a22.69,22.69,0,0,0,1-4c0-1,0-5,2-7s0-8,4-8c0,0-3-3,0-5l.45-4.75" style="fill:none;stroke:#000;stroke-linecap:round;stroke-linejoin:round;stroke-width:2px"/><polygon points="20 80 0 100 0 132 20 117 28 94 20 80" style="fill:#ffed4d"/><polygon points="18 26 5 40 12 68 20 74 21 50 24 57 39 42 49.5 58.5 49.5 36.5 30.5 22.5 18 26" style="fill:#ffed4d"/><path d="M19,29s-4,0-6,2S8,38,8,46s3,16,6,20,5,2,7,6,3,3,3,3V72s-3-4-3-6-1-11,0-13c0,0,1-1,1,1s2,0,2-1c0,0,0,3-1,4,0,0,7,1,14-12,0,0,1,4,0,7a10.8,10.8,0,0,0,4-8s2,4,2,7a4.38,4.38,0,0,0,1-3,39.33,39.33,0,0,0,2,6,9,9,0,0,1,1,5,31,31,0,0,0,2-10c0-5-1-11-5-15s-12-8-17-8A12,12,0,0,0,19,29Z" style="fill:none;stroke:#000;stroke-linecap:round;stroke-linejoin:round;stroke-width:2px"/><path d="M46.5,58.5s1,5,0,7-3,6-3,7-2,4-5,5-7,0-10-2a50.37,50.37,0,0,1-5-4" style="fill:none;stroke:#000;stroke-linecap:round;stroke-linejoin:round;stroke-width:2px"/><path d="M43.5,72.5s2,4,5,3" style="fill:none;stroke:#000;stroke-linecap:round;stroke-linejoin:round;stroke-width:2px"/><path d="M111.5,79.5h1a13.38,13.38,0,0,0,5,1c1,1,3-1,4-1s3-2,4-3,0-3,0-3v-2c0-1-1-2-1-3a1,1,0,0,0-1-1,14.39,14.39,0,0,0,3-2c1-1,7-1,6-3,0,0,0-1-5,0s-6,1-8,1-7,4-7,4-1,0-2,2c0,0-2,2-3,2s-4,2-6,2a12.68,12.68,0,0,0-6,1c-2,1-6,3-8,6" style="fill:none;stroke:#000;stroke-linecap:round;stroke-linejoin:round;stroke-width:2px"/><path d="M43.5,81.5s5-3,6-7a43.31,43.31,0,0,0,5,1c1,0,7,0,10,1s5,0,8,1,8,2,9,3,0,0-2,2" style="fill:none;stroke:#000;stroke-linecap:round;stroke-linejoin:round;stroke-width:2px"/><path d="M81.5,80.5a16.67,16.67,0,0,1,7.69-2" style="fill:none;stroke:#000;stroke-linecap:round;stroke-linejoin:round;stroke-width:2px"/><path d="M113.79,80s-1.29,1.52-5.29,3.52-8,5-10,6a39.33,39.33,0,0,1-6,2s-10,4-12,5" style="fill:none;stroke:#000;stroke-linecap:round;stroke-linejoin:round;stroke-width:2px"/><path d="M85.5,95.5s-1,5-2,6-4,5-5,3a18.54,18.54,0,0,1-2-7c0-2-3-4-2-8a13.63,13.63,0,0,1,3-6" style="fill:none;stroke:#000;stroke-linecap:round;stroke-linejoin:round;stroke-width:2px"/><path d="M25.31,73.07A23.25,23.25,0,0,1,26.5,79.5v3" style="fill:none;stroke:#000;stroke-linecap:round;stroke-linejoin:round;stroke-width:2px"/><path d="M13.5,133.5a28.29,28.29,0,0,1,3-6c2-3,7-10,8-13s5-13,6-15,1-10,1-11,3-2,4-3,3-2,7-2,3,2,3,2h2a1,1,0,0,1,1,1,3.49,3.49,0,0,1-1,2,1,1,0,0,1,1,1,3.49,3.49,0,0,1-1,2,3.49,3.49,0,0,1,1,2,1,1,0,0,1-1,1,1,1,0,0,1,1,1c0,1-2,1-3,2s-5,3-5,4a4.37,4.37,0,0,1-3,4,31.25,31.25,0,0,0-2,7c-1,5-3,12-4,16s-4,20-8,20-6,3-10-5-5-15-6-20" style="fill:none;stroke:#000;stroke-linecap:round;stroke-linejoin:round;stroke-width:2px"/><path d="M33.5,85.5s-7-1-9-6c0,0-1,2-6,5s-12,6-13,7-4,1-3,11a66.88,66.88,0,0,1,0,16v10a12.13,12.13,0,0,0,5,1" style="fill:none;stroke:#000;stroke-linecap:round;stroke-linejoin:round;stroke-width:2px"/><path d="M3.5,127.5s0-6,16-7c0,0-3-7-6-11s-5-4-5-4" style="fill:none;stroke:#000;stroke-linecap:round;stroke-linejoin:round;stroke-width:2px"/><path d="M13.5,103.5s1.25,5.86,1.62,8.43" style="fill:none;stroke:#000;stroke-linecap:round;stroke-linejoin:round;stroke-width:2px"/><path d="M35.5,85.5s-2-5,0-6,4-2,5-1,2,5,2,5" style="fill:none;stroke:#000;stroke-linecap:round;stroke-linejoin:round;stroke-width:2px"/><path d="M40.5,101.5s3,14,5,15a3,3,0,0,0,4-2c0-1-4-17-4-17" style="fill:none;stroke:#000;stroke-linecap:round;stroke-linejoin:round;stroke-width:2px"/><line x1="83.5" y1="72.5" x2="89.5" y2="7.5" style="fill:none;stroke:#000;stroke-linecap:round;stroke-linejoin:round;stroke-width:2px"/><polyline points="80.5 111.5 78.5 132.5 165.5 172.5" style="fill:none;stroke:#000;stroke-linecap:round;stroke-linejoin:round;stroke-width:2px"/><polygon points="97 0 89.5 73.5 107.5 65.5 116.5 58.5 138.5 58.5 140.16 63.97 132.5 72.5 132.5 83.5 89.5 96.5 83.5 127.5 177.5 170.5 266.5 79.5 275.5 7.5 97 0" style="fill:#ffed4d"/></svg>