<svg xmlns="http://www.w3.org/2000/svg" viewBox="0 0 183.25 151.89"><title>chukan</title><polygon points="62.25 145.89 63.25 124.89 33.25 122.89 14.25 126.89 7.25 147.89 62.25 145.89" style="fill:#ffed4d"/><polygon points="29.25 8.89 20.25 15.89 14.25 45.89 19.25 51.89 27.25 44.89 28.25 37.89 25.25 33.89 24.25 28.89 30.25 23.89 32.25 38.07 36.25 23.89 57.25 19.89 51.25 8.89 29.25 8.89" style="fill:#ffed4d"/><polygon points="24.25 96.89 58.25 87.89 55.25 95.89 24.25 96.89" style="fill:#ffed4d"/><polygon points="16.25 76.89 6.25 104.89 22.25 104.89 16.25 76.89" style="fill:#ffed4d"/><polygon points="168.25 44.89 143.25 55.89 139.25 72.89 132.25 72.89 129.25 76.89 127.25 87.89 137.25 104.89 134.25 151.89 179.25 149.89 177.25 118.89 182.25 84.89 177.25 55.89 168.25 44.89" style="fill:#ffed4d"/><path d="M159.25,30.89s1,7,2,8a14.39,14.39,0,0,0,3,2l4-7s2-1,2-2,2-3,2-3l1-5s1-6-2-11-5-8-8-8-10-3-10-3-7-2-10,0-14,8-14,12-1,3,0,5c0,0,0-3,2-4s0,4,3,5,3,3,3,3-2-5-2-6c0,0,3,6,6,7,0,0-1-3,0-5,0,0,2,5,4,6a18.66,18.66,0,0,1,4,3s5-5,7-5a4.3,4.3,0,0,1,4,4c0,2,0,4-2,5s-2,2-3,2" style="fill:none;stroke:#000;stroke-linecap:round;stroke-linejoin:round;stroke-width:2px"/><path d="M132.69,18.26a34.22,34.22,0,0,0-.44,4.63,10.34,10.34,0,0,0,1,4s-3,5-2,7,2,2,2,2a4.38,4.38,0,0,1,1,3,10.34,10.34,0,0,0,1,4s0,4,2,5,3,0,5,1,6,9,6,9" style="fill:none;stroke:#000;stroke-linecap:round;stroke-linejoin:round;stroke-width:2px"/><path d="M140.73,48.43s6.52-3.54,8.52-6.54" style="fill:none;stroke:#000;stroke-linecap:round;stroke-linejoin:round;stroke-width:2px"/><path d="M123.25,75.89s-4-1-6-4l-4-6v-3a10,10,0,0,1,1-4c1-2,4,0,4,0s-3-2-2-4,5-1,5-1,3,1,3,2a4.94,4.94,0,0,1,3,1c1,1,3,4,3,5s1,1,1,3a4.38,4.38,0,0,0,1,3" style="fill:none;stroke:#000;stroke-linecap:round;stroke-linejoin:round;stroke-width:2px"/><line x1="131.25" y1="149.89" x2="137.25" y2="107.89" style="fill:none;stroke:#000;stroke-linecap:round;stroke-linejoin:round;stroke-width:2px"/><path d="M124.25,76.89s3,1,2,2-4,4-2,6,3,12,5,14,11,13,19,13,8-2,10-3,18-15,18-19,3-7,3-11" style="fill:none;stroke:#000;stroke-linecap:round;stroke-linejoin:round;stroke-width:2px"/><path d="M164.25,43.89a3.55,3.55,0,0,0,2,3s-4,0-9,4" style="fill:none;stroke:#000;stroke-linecap:round;stroke-linejoin:round;stroke-width:2px"/><path d="M168.25,48.89s6,2,9,7,5,25,5,29-3,20-3,25,1,33,1,33" style="fill:none;stroke:#000;stroke-linecap:round;stroke-linejoin:round;stroke-width:2px"/><path d="M125.25,73.89s5-4,9-4l3,4s0,1,2,4,10,11,10,11-1,1,0,3" style="fill:none;stroke:#000;stroke-linecap:round;stroke-linejoin:round;stroke-width:2px"/><path d="M162.25,57.89s-9,9-11,14-3,10-3,12" style="fill:none;stroke:#000;stroke-linecap:round;stroke-linejoin:round;stroke-width:2px"/><path d="M141.25,77.89s4-17,10-22" style="fill:none;stroke:#000;stroke-linecap:round;stroke-linejoin:round;stroke-width:2px"/><path d="M26.25,101.89s13-3,16-3,8-2,8-2l6,2,4,2a61.25,61.25,0,0,1,6,4c1,1,2,1,2,2s-3,1-4,0a14.39,14.39,0,0,0-3-2s-4-1-4-2" style="fill:none;stroke:#000;stroke-linecap:round;stroke-linejoin:round;stroke-width:2px"/><path d="M61.25,104.89s5,3,6,5-2,2-3,1a39.87,39.87,0,0,0-4-3l-3-1" style="fill:none;stroke:#000;stroke-linecap:round;stroke-linejoin:round;stroke-width:2px"/><path d="M22.25,114.89s16-5,20-7a10,10,0,0,1,4,1c2,1,2,1,8,3s8,4,9,3a1.39,1.39,0,0,0,0-2,3.16,3.16,0,0,0,3.06-1.34" style="fill:none;stroke:#000;stroke-linecap:round;stroke-linejoin:round;stroke-width:2px"/><path d="M18.25,73.89a8.76,8.76,0,0,1,2,6v18c0,1-1,2-3,2s-7,2-7,2" style="fill:none;stroke:#000;stroke-linecap:round;stroke-linejoin:round;stroke-width:2px"/><path d="M24.25,101.89s-1-1-4-1" style="fill:none;stroke:#000;stroke-linecap:round;stroke-linejoin:round;stroke-width:2px"/><path d="M28.25,10.89s-4,3-5,6-3.1,6.31-5,12c-2,6-4,16,0,19s3,4,3,4l2-4" style="fill:none;stroke:#000;stroke-linecap:round;stroke-linejoin:round;stroke-width:2px"/><path d="M32.25,9.89a7.5,7.5,0,0,1,6-3c4,0,14,4,16,9s2,4,1,6l-3-1s-4,3-5,3-1,1-7,0" style="fill:none;stroke:#000;stroke-linecap:round;stroke-linejoin:round;stroke-width:2px"/><path d="M35.25,26.89s-3,13-1,20c0,0-5-11-5-21" style="fill:none;stroke:#000;stroke-linecap:round;stroke-linejoin:round;stroke-width:2px"/><path d="M28.25,27.89c-1,1-2,1-1,3s.16,4,3.08,4.5" style="fill:none;stroke:#000;stroke-linecap:round;stroke-linejoin:round;stroke-width:2px"/><path d="M28.25,47.89l-3,1-3,6s-10,3-14,11-6,22-6,22l-1,20s-1,1,1,4,6,8,9,8,3-1,3-1l7,1s0-9,4-16" style="fill:none;stroke:#000;stroke-linecap:round;stroke-linejoin:round;stroke-width:2px"/><path d="M52.25,24.89v4c0,1,.8,2,1,5,.35,5.27-1,6-2,8-.89,1.79-2,4-4,5s-9-1-11-3" style="fill:none;stroke:#000;stroke-linecap:round;stroke-linejoin:round;stroke-width:2px"/><path d="M14.25,118.89s-2,4,1,5,3,2,7,1a62.67,62.67,0,0,1,16-2c7,0,18,2,20,2a20.34,20.34,0,0,0,5-1s2-1,1-2a3.67,3.67,0,0,1-1-3" style="fill:none;stroke:#000;stroke-linecap:round;stroke-linejoin:round;stroke-width:2px"/><path d="M59.25,72.89a4.83,4.83,0,0,0,0,4,25.09,25.09,0,0,1,2,10c0,4-3,10-3,10" style="fill:none;stroke:#000;stroke-linecap:round;stroke-linejoin:round;stroke-width:2px"/><path d="M29.25,48.89s6,7,13,6c0,0,1,4-1,7" style="fill:none;stroke:#000;stroke-linecap:round;stroke-linejoin:round;stroke-width:2px"/><path d="M45.25,48.89s0,4-1,5c0,0,1,7,4,7" style="fill:none;stroke:#000;stroke-linecap:round;stroke-linejoin:round;stroke-width:2px"/><path d="M45.25,62.89s-1,0-1,3,4,8,4,13" style="fill:none;stroke:#000;stroke-linecap:round;stroke-linejoin:round;stroke-width:2px"/><path d="M44.25,98.68a14.42,14.42,0,0,0,4-5.79" style="fill:none;stroke:#000;stroke-linecap:round;stroke-linejoin:round;stroke-width:2px"/><path d="M48.25,53.89a63.91,63.91,0,0,0,10,4c4,1,6,20,7,21" style="fill:none;stroke:#000;stroke-linecap:round;stroke-linejoin:round;stroke-width:2px"/><path d="M9.25,140.89c0-4,3-9,4-13s4.37-2.59,4.37-2.59" style="fill:none;stroke:#000;stroke-linecap:round;stroke-linejoin:round;stroke-width:2px"/><path d="M29.25,41.89s-1,3,1,5" style="fill:none;stroke:#000;stroke-linecap:round;stroke-linejoin:round;stroke-width:2px"/><path d="M55.25,23.89a43.31,43.31,0,0,0-1,5" style="fill:none;stroke:#000;stroke-linecap:round;stroke-linejoin:round;stroke-width:2px"/></svg>