<svg xmlns="http://www.w3.org/2000/svg" viewBox="0 0 296 149"><title>saisyu</title><polygon points="151 4 151 33 200 5.76 151 4" style="fill:#ffed4d"/><polygon points="52 53 57 34 66 33 72 50 68 56 52 53" style="fill:#ffed4d"/><polygon points="0 103 61 149 97 149 97 98 81 74 76 62 5 55 0 103" style="fill:#ffed4d"/><polygon points="296 104 247 141 220 141 126 79 128 66 131 64 135 53 152 58 169 60 174 68 179 66 183 57 191 55 200 58 207 59 220 53 242 57 247 70 256 55 293 51 296 104" style="fill:#ffed4d"/><polygon points="78 1 78 39 141 38 141 2 78 1" style="fill:none;stroke:#000;stroke-linecap:round;stroke-linejoin:round;stroke-width:2px"/><polygon points="147 2 147 39 204 38 204 3 147 2" style="fill:none;stroke:#000;stroke-linecap:round;stroke-linejoin:round;stroke-width:2px"/><path d="M39,103s4-8,6-9,5-3,8-3,3-2,4-2,6-2,8-1" style="fill:none;stroke:#000;stroke-linecap:round;stroke-linejoin:round;stroke-width:2px"/><path d="M56,86s-1-3-2-4,0-8,1-11,7-5,7-5,4-3,9,1,5,6,5,8-2,6-2,6l-3,2" style="fill:none;stroke:#000;stroke-linecap:round;stroke-linejoin:round;stroke-width:2px"/><path d="M72,86a14.09,14.09,0,0,1-3,5s6,0,7,1,7,2,7,4,2,11,2,12,2,3,2,5-6,5-7,4-3-3-2-5a40.76,40.76,0,0,0,2-7" style="fill:none;stroke:#000;stroke-linecap:round;stroke-linejoin:round;stroke-width:2px"/><path d="M140,62a4.83,4.83,0,0,0,0-4c-1-2-1-2-3-2a2.65,2.65,0,0,0-3,3v4s1,1-1,3-3,3-3,4-2,7-2,7" style="fill:none;stroke:#000;stroke-linecap:round;stroke-linejoin:round;stroke-width:2px"/><path d="M132,80l2-8,2-2s-4-5,1-7,5,1,5,1" style="fill:none;stroke:#000;stroke-linecap:round;stroke-linejoin:round;stroke-width:2px"/><path d="M287,104l-6-2-2-4s6-10,6-13-1-12-6-14-7-7-15-5-15,11-15,16,3,7,3,7,1,12,3,12,5,4,5,4l-3,6s-11,2-14,9-3,16-3,16" style="fill:none;stroke:#000;stroke-linecap:round;stroke-linejoin:round;stroke-width:2px"/><path d="M290,66s-7,1-9,3" style="fill:none;stroke:#000;stroke-linecap:round;stroke-linejoin:round;stroke-width:2px"/><path d="M197,122c2-3,5-14,5-14s-5,6-8,5-4-4-4-8,4-11,7-17,4-4,7-5,8-2,8-2a11,11,0,0,1-2-4c-1-3-2-10-1-15a6.21,6.21,0,0,1,6-5,12.68,12.68,0,0,1,6-2c3,0,9,4,9,7s1,4,0,9a58.09,58.09,0,0,0-1,10s10,5,11,6a14.9,14.9,0,0,1,3,8v6" style="fill:none;stroke:#000;stroke-linecap:round;stroke-linejoin:round;stroke-width:2px"/><path d="M179,82a12.38,12.38,0,0,1-2-3c-1-2-7-2-9-3s2-4,0-10-3-4-6-4-3,2-4,5,2,8,2,8-4,4-8,5,0,15,0,15h16" style="fill:none;stroke:#000;stroke-linecap:round;stroke-linejoin:round;stroke-width:2px"/><path d="M139,89a19.93,19.93,0,0,1,2-8c2-4,10-6,10-6s-2-3-2-5,2-6,5-7,3,1,3,1" style="fill:none;stroke:#000;stroke-linecap:round;stroke-linejoin:round;stroke-width:2px"/><path d="M134,82s2-8,4-9,4-2,4-3,0-9,2-10,3-1,5,2,1.22,3.54,1.22,3.54" style="fill:none;stroke:#000;stroke-linecap:round;stroke-linejoin:round;stroke-width:2px"/><path d="M207,62s-3-2-5,0-4,5-3,6" style="fill:none;stroke:#000;stroke-linecap:round;stroke-linejoin:round;stroke-width:2px"/><path d="M182,66s2-9,7-9,9,4,8,6" style="fill:none;stroke:#000;stroke-linecap:round;stroke-linejoin:round;stroke-width:2px"/><path d="M259,60s1-3,5-3,4,4,4,4" style="fill:none;stroke:#000;stroke-linecap:round;stroke-linejoin:round;stroke-width:2px"/><path d="M259,66s3-8,12-3" style="fill:none;stroke:#000;stroke-linecap:round;stroke-linejoin:round;stroke-width:2px"/><path d="M281,60s0-4,3-5,5,1,5,4,1,2,1,2" style="fill:none;stroke:#000;stroke-linecap:round;stroke-linejoin:round;stroke-width:2px"/><path d="M272,61a7.94,7.94,0,0,1,8,1c4,3,2,4,2,4" style="fill:none;stroke:#000;stroke-linecap:round;stroke-linejoin:round;stroke-width:2px"/><path d="M231,59s3,1,3,3a56.38,56.38,0,0,0,1,7l6,5,1,4" style="fill:none;stroke:#000;stroke-linecap:round;stroke-linejoin:round;stroke-width:2px"/><path d="M33,102s21,7,28,8,23,25,26,27" style="fill:none;stroke:#000;stroke-linecap:round;stroke-linejoin:round;stroke-width:2px"/><path d="M9,98S7,88,11,83s4-10,10-10,7-3,12-3,12,7,12,9,1,10,0,11" style="fill:none;stroke:#000;stroke-linecap:round;stroke-linejoin:round;stroke-width:2px"/><path d="M72,65s2-3,4-3,7,2,7,5-3,5-2,7,4,2,5,3,3,8,3,8" style="fill:none;stroke:#000;stroke-linecap:round;stroke-linejoin:round;stroke-width:2px"/><path d="M41,72s-3-3,0-7,4-4,6-3a5.36,5.36,0,0,1,3,4c0,1-2,5-1,7s3,5,3,5" style="fill:none;stroke:#000;stroke-linecap:round;stroke-linejoin:round;stroke-width:2px"/><path d="M12,77s0-12,8-11,7,4,7,4" style="fill:none;stroke:#000;stroke-linecap:round;stroke-linejoin:round;stroke-width:2px"/><path d="M41,62s1-3-3-3-5,4-5,5v2l-3,3" style="fill:none;stroke:#000;stroke-linecap:round;stroke-linejoin:round;stroke-width:2px"/><path d="M61,63s2-4,0-5-7-3-7,1a14.52,14.52,0,0,0,1,6l-3,6" style="fill:none;stroke:#000;stroke-linecap:round;stroke-linejoin:round;stroke-width:2px"/><path d="M5,61l2,2s2-3,5-3a4.33,4.33,0,0,1,4,2,6.93,6.93,0,0,1,5,0,11,11,0,0,1,4,2" style="fill:none;stroke:#000;stroke-linecap:round;stroke-linejoin:round;stroke-width:2px"/><polyline points="188 136 190 124 201 136" style="fill:none;stroke:#000;stroke-linecap:round;stroke-linejoin:round;stroke-width:2px"/><polyline points="163 136 163 106 170 114" style="fill:none;stroke:#000;stroke-linecap:round;stroke-linejoin:round;stroke-width:2px"/><polyline points="148 113 148 95 152 101" style="fill:none;stroke:#000;stroke-linecap:round;stroke-linejoin:round;stroke-width:2px"/><polyline points="139 112 138 91 141 94" style="fill:none;stroke:#000;stroke-linecap:round;stroke-linejoin:round;stroke-width:2px"/><polyline points="131 96 131 85 134 89 134 106" style="fill:none;stroke:#000;stroke-linecap:round;stroke-linejoin:round;stroke-width:2px"/><polyline points="126 101 126 82 128 85" style="fill:none;stroke:#000;stroke-linecap:round;stroke-linejoin:round;stroke-width:2px"/><polyline points="123 91 123 79 124 82" style="fill:none;stroke:#000;stroke-linecap:round;stroke-linejoin:round;stroke-width:2px"/><polyline points="120 75 121 76 126 76" style="fill:none;stroke:#000;stroke-linecap:round;stroke-linejoin:round;stroke-width:2px"/><polyline points="91 109 91 117 92 132" style="fill:none;stroke:#000;stroke-linecap:round;stroke-linejoin:round;stroke-width:2px"/><polyline points="89 103 91 103 91 98" style="fill:none;stroke:#000;stroke-linecap:round;stroke-linejoin:round;stroke-width:2px"/><polyline points="88 95 92 95 92 91" style="fill:none;stroke:#000;stroke-linecap:round;stroke-linejoin:round;stroke-width:2px"/><polyline points="86 89 91 89 90 86" style="fill:none;stroke:#000;stroke-linecap:round;stroke-linejoin:round;stroke-width:2px"/><polyline points="252 101 220 103 224 125 238 124" style="fill:none;stroke:#000;stroke-linecap:round;stroke-linejoin:round;stroke-width:2px"/><polyline points="226 127 236 133 239 133" style="fill:none;stroke:#000;stroke-linecap:round;stroke-linejoin:round;stroke-width:2px"/><path d="M210,125s6,2,9,0v-9l-3-6-4-1Z" style="fill:none;stroke:#000;stroke-linecap:round;stroke-linejoin:round;stroke-width:2px"/><polyline points="216 129 223 134 229 133" style="fill:none;stroke:#000;stroke-linecap:round;stroke-linejoin:round;stroke-width:2px"/><polyline points="190 113 173 114 173 137" style="fill:none;stroke:#000;stroke-linecap:round;stroke-linejoin:round;stroke-width:2px"/><path d="M169,107a3.3,3.3,0,0,0,5,0c2-2,1-7,1-7l-2-2V95h-2V93c0-1,3-8,4-9s4,0,4,0l5-2-2-3V70c0-2,4-6,7-6,0,0,3-1,6,2s3,4,3,5,0,6-1,8,0,2,0,2l3,1" style="fill:none;stroke:#000;stroke-linecap:round;stroke-linejoin:round;stroke-width:2px"/><polyline points="169 105 169 98 171 95" style="fill:none;stroke:#000;stroke-linecap:round;stroke-linejoin:round;stroke-width:2px"/><polyline points="190 111 182 111 178 106 188 106" style="fill:none;stroke:#000;stroke-linecap:round;stroke-linejoin:round;stroke-width:2px"/><polyline points="167 101 154 102 154 123" style="fill:none;stroke:#000;stroke-linecap:round;stroke-linejoin:round;stroke-width:2px"/><polyline points="147 94 144 94 144 114" style="fill:none;stroke:#000;stroke-linecap:round;stroke-linejoin:round;stroke-width:2px"/><line x1="140" y1="90" x2="149" y2="88" style="fill:none;stroke:#000;stroke-linecap:round;stroke-linejoin:round;stroke-width:2px"/><line x1="133" y1="84" x2="138" y2="85" style="fill:none;stroke:#000;stroke-linecap:round;stroke-linejoin:round;stroke-width:2px"/><line x1="128" y1="81" x2="132" y2="81" style="fill:none;stroke:#000;stroke-linecap:round;stroke-linejoin:round;stroke-width:2px"/><line x1="235" y1="81" x2="247" y2="80" style="fill:none;stroke:#000;stroke-linecap:round;stroke-linejoin:round;stroke-width:2px"/><line x1="119" y1="101" x2="148" y2="143" style="fill:none;stroke:#000;stroke-linecap:round;stroke-linejoin:round;stroke-width:2px"/><path d="M56,55s-1-6,1-7,2-2,2-2a2.19,2.19,0,0,1-1-3c1-2,0-3,3-4s4,4,3,6c0,0,2,2,2,4a10.34,10.34,0,0,0,1,4" style="fill:none;stroke:#000;stroke-linecap:round;stroke-linejoin:round;stroke-width:2px"/><polyline points="62 57 63 54 71 53 70 57" style="fill:none;stroke:#000;stroke-linecap:round;stroke-linejoin:round;stroke-width:2px"/><polyline points="78 61 78 57 63 58" style="fill:none;stroke:#000;stroke-linecap:round;stroke-linejoin:round;stroke-width:2px"/><polyline points="47 60 48 57 51 57 52 66" style="fill:none;stroke:#000;stroke-linecap:round;stroke-linejoin:round;stroke-width:2px"/><polygon points="81 3 81 36 139 5 81 3" style="fill:#ffed4d"/></svg>