<svg xmlns="http://www.w3.org/2000/svg" viewBox="0 0 143 180"><title>mentor</title><rect width="143" height="180" rx="9.8" style="fill:#fff"/><path d="M119.19,79.89a3.47,3.47,0,0,1,0,6.74L78.29,99.09a9.88,9.88,0,0,1-6.74,0L42.82,90.3a7.24,7.24,0,0,0-3.08,5.42,4.53,4.53,0,0,1,.29,7.77l3.81,16.86a2.46,2.46,0,0,1-.51,1.9,2.15,2.15,0,0,1-1.83.88H33.29a2.15,2.15,0,0,1-1.83-.88,2.51,2.51,0,0,1-.52-1.9l3.82-16.86a4.49,4.49,0,0,1-2.06-3.81,4.27,4.27,0,0,1,2.35-4,11.36,11.36,0,0,1,2.64-6.89l-7-2.2a3.47,3.47,0,0,1,0-6.74l40.9-12.46a10,10,0,0,1,6.74,0ZM79.76,103.64,101,97.19l2,16.56q0,4-8.21,6.67a64,64,0,0,1-19.94,2.71A64,64,0,0,1,55,120.42q-8.2-2.7-8.2-6.67l2-16.56,21.25,6.45A16.3,16.3,0,0,0,79.76,103.64Z" style="fill:#ffed4d"/><path d="M116.35,76.8a3.48,3.48,0,0,1,0,6.75L75.45,96a10,10,0,0,1-6.74,0L40,87.21a7.24,7.24,0,0,0-3.08,5.42,4.54,4.54,0,0,1,.29,7.77L41,117.26a2.48,2.48,0,0,1-.51,1.91,2.18,2.18,0,0,1-1.83.88H30.45a2.18,2.18,0,0,1-1.84-.88,2.48,2.48,0,0,1-.51-1.91l3.81-16.86a4.46,4.46,0,0,1-2.05-3.81,4.27,4.27,0,0,1,2.35-4,11.37,11.37,0,0,1,2.63-6.89l-7-2.19a3.48,3.48,0,0,1,0-6.75l40.9-12.46a10,10,0,0,1,6.74,0ZM76.92,100.55,98.17,94.1l2,16.57c0,2.63-2.73,4.86-8.2,6.66a64,64,0,0,1-19.94,2.72,64,64,0,0,1-19.94-2.72c-5.47-1.8-8.21-4-8.21-6.66L46,94.1l21.25,6.45A16.3,16.3,0,0,0,76.92,100.55Z" style="fill:none;stroke:#000;stroke-linecap:round;stroke-linejoin:round;stroke-width:2px"/></svg>