<svg xmlns="http://www.w3.org/2000/svg" viewBox="0 0 143 180"><title>money</title><rect width="143" height="180" rx="9.8" style="fill:#fff"/><path d="M84.48,90.62a15.82,15.82,0,0,1,9.75,8.06,15.19,15.19,0,0,1,1,12.75,15.45,15.45,0,0,1-6,7.7,17.51,17.51,0,0,1-9.53,3v7a2.26,2.26,0,0,1-2.35,2.35H72.6a2.28,2.28,0,0,1-1.68-.66,2.3,2.3,0,0,1-.66-1.69v-7a19.82,19.82,0,0,1-12.61-4.39,2.77,2.77,0,0,1-1-1.76,1.86,1.86,0,0,1,.74-1.76l5-5a2.16,2.16,0,0,1,2.93-.29,8.78,8.78,0,0,0,5,1.47h9.67a4.27,4.27,0,0,0,4.4-4.4,3.88,3.88,0,0,0-3.08-4.1l-15.1-4.4a17.52,17.52,0,0,1-8.35-5.28A15.56,15.56,0,0,1,58,71.05,15.49,15.49,0,0,1,70,65.84h.3v-7a2.26,2.26,0,0,1,2.34-2.35h4.69a2.26,2.26,0,0,1,2.35,2.35v7a19.85,19.85,0,0,1,12.61,4.4,2.8,2.8,0,0,1,1,1.76,1.83,1.83,0,0,1-.73,1.76l-5,5a2.16,2.16,0,0,1-2.94.3,8.75,8.75,0,0,0-5-1.47H70A4.26,4.26,0,0,0,65.57,82a4.05,4.05,0,0,0,.88,2.49,4.43,4.43,0,0,0,2.2,1.61Z" style="fill:#ffed4d"/><path d="M81.63,87.53a15.82,15.82,0,0,1,9.75,8.06,15.14,15.14,0,0,1,1,12.76,15.32,15.32,0,0,1-6,7.69,17.57,17.57,0,0,1-9.52,3v7a2.32,2.32,0,0,1-.66,1.69,2.3,2.3,0,0,1-1.69.66H69.76a2.26,2.26,0,0,1-2.35-2.35v-7a19.8,19.8,0,0,1-12.6-4.4,2.74,2.74,0,0,1-1-1.76,1.86,1.86,0,0,1,.73-1.76l5-5a2.15,2.15,0,0,1,2.93-.3,8.77,8.77,0,0,0,5,1.47h9.68a4.27,4.27,0,0,0,4.4-4.4,3.88,3.88,0,0,0-3.08-4.1l-15.1-4.4A17.55,17.55,0,0,1,55,89.14,15.56,15.56,0,0,1,55.17,68a15.52,15.52,0,0,1,12-5.2h.29v-7a2.26,2.26,0,0,1,2.35-2.35h4.69a2.3,2.3,0,0,1,1.69.66,2.34,2.34,0,0,1,.66,1.69v7a19.79,19.79,0,0,1,12.6,4.39,2.77,2.77,0,0,1,1,1.76,1.87,1.87,0,0,1-.73,1.76l-5,5a2.15,2.15,0,0,1-2.93.29,8.77,8.77,0,0,0-5-1.47H67.12a4.27,4.27,0,0,0-4.4,4.4,4.11,4.11,0,0,0,.88,2.49A4.5,4.5,0,0,0,65.8,83Z" style="fill:none;stroke:#000;stroke-linecap:round;stroke-linejoin:round;stroke-width:2px"/></svg>