<svg xmlns="http://www.w3.org/2000/svg" viewBox="0 0 202.04 129.04"><title>mtg</title><polygon points="41.87 62.55 41.87 87.2 53.14 87.2 54.55 75.93 73.57 68.89 72.86 65.36 65.11 49.87 69.34 34.38 43.42 34.38 41.87 62.55" style="fill:#ffed4d"/><polygon points="110.19 36.49 112.3 44.94 98.22 68.18 116.53 75.22 120.75 85.79 134.13 85.79 139.77 40.72 110.19 36.49" style="fill:#ffed4d"/><path d="M32.72,94.24c2.49,3.11,102.12,3.52,108.46,0S151,37.9,145.4,31.56s-102.12-6.34-107-4.23S29.9,90.72,32.72,94.24Z" style="fill:none;stroke:#000;stroke-linecap:round;stroke-linejoin:round;stroke-width:2px"/><path d="M43.28,32.26c-2.7,1.62-5.63,54.23-4.22,56.35s94.37,2.81,97.89,0,7-46.49,4.23-50S46.8,30.15,43.28,32.26Z" style="fill:none;stroke:#000;stroke-linecap:round;stroke-linejoin:round;stroke-width:2px"/><path d="M74.27,47.05c.7,2.12-.7,4.93-.7,7.05s.7,9.15,3.52,12.67c3.43,4.3,6.34,4.23,8.45,4.23,4.22,0,10.56-4.93,12-8.45S101,54.8,101,52.69" style="fill:none;stroke:#000;stroke-linecap:round;stroke-linejoin:round;stroke-width:2px"/><path d="M83.43,40.72s2.36,4.22,3.54,4.22,0-2.82,0-2.82l3.93,3.52C92.48,47.05,97,52,98.22,52" style="fill:none;stroke:#000;stroke-linecap:round;stroke-linejoin:round;stroke-width:2px"/><path d="M72.86,34.38s-2.81,1.41-2.81,6.34-2.12,9.15,0,12" style="fill:none;stroke:#000;stroke-linecap:round;stroke-linejoin:round;stroke-width:2px"/><path d="M105,35.44s6.65,4.57,4.53,11.61-5.63,9.86-5.63,9.86" style="fill:none;stroke:#000;stroke-linecap:round;stroke-linejoin:round;stroke-width:2px"/><path d="M77.09,66.77s.7,3.65-.71,5.48S73.57,76.5,75,76.5s4.23,3.65,8.46,3.65S94,78.94,96.1,75.9c0,0-2.11-3-2.11-4.87" style="fill:none;stroke:#000;stroke-linecap:round;stroke-linejoin:round;stroke-width:2px"/><path d="M70.75,55.5s0,2.82,1.41,4.23" style="fill:none;stroke:#000;stroke-linecap:round;stroke-linejoin:round;stroke-width:2px"/><path d="M32.72,94.24S-1.09,118,3.14,122.3s141.56,7.32,151.42,4.88" style="fill:none;stroke:#000;stroke-linecap:round;stroke-linejoin:round;stroke-width:2px"/><path d="M141.88,94.24S163,116.78,163,123.11" style="fill:none;stroke:#000;stroke-linecap:round;stroke-linejoin:round;stroke-width:2px"/><path d="M73.57,72.41s-14.09,2.11-16.91,7.74" style="fill:none;stroke:#000;stroke-linecap:round;stroke-linejoin:round;stroke-width:2px"/><path d="M125,43.53c3.72,2.13-7,8.45-7,8.45s8.45,1.41,14.08-2.81c0,0,31,7,50-2.12s19-21.12,19-26.76A19.06,19.06,0,0,0,187.66,2c-10.57-3.52-26.06,3.52-38,4.23s-19,1.4-22.54,11.26S120.05,40.72,125,43.53Z" style="fill:#fff;stroke:#000;stroke-linecap:round;stroke-linejoin:round;stroke-width:2px"/><path d="M52.59,55.48c-2.52,1.44,4.78,5.73,4.78,5.73s-5.73,1-9.56-1.91c0,0-21,4.78-33.91-1.43S1,43.54,1,39.71a12.92,12.92,0,0,1,9.08-12.42c7.16-2.38,17.67,2.39,25.79,2.87s12.9,1,15.29,7.64S55.94,53.57,52.59,55.48Z" style="fill:#fff;stroke:#000;stroke-linecap:round;stroke-linejoin:round;stroke-width:2px"/><polygon points="34.13 99.17 10.18 118.18 136.95 101.99 34.13 99.17" style="fill:#ffed4d"/><polygon points="60.19 118.89 106.67 120.3 103.85 111.14 78.5 111.14 62.3 113.96 60.19 118.89" style="fill:#ffed4d"/></svg>