<svg xmlns="http://www.w3.org/2000/svg" viewBox="0 0 143 180"><title>place</title><rect width="143" height="180" rx="9.8" style="fill:#fff"/><path d="M108.78,101.79a1.51,1.51,0,0,1,.88,2,36.43,36.43,0,0,1-8.06,13.78,1.55,1.55,0,0,1-2,.44l-6.3-3.67a28.06,28.06,0,0,1-9,5.13v7.19A1.59,1.59,0,0,1,83,128.46a36.46,36.46,0,0,1-16,0,1.63,1.63,0,0,1-1.47-1.75v-7.19a28,28,0,0,1-8.94-5.13l-6.16,3.67a1.72,1.72,0,0,1-2.2-.44,36.43,36.43,0,0,1-8.06-13.78,1.58,1.58,0,0,1,.88-2l6.16-3.67a30.13,30.13,0,0,1,0-10.26l-6.16-3.67a1.51,1.51,0,0,1-.88-2,36.43,36.43,0,0,1,8.06-13.78,1.59,1.59,0,0,1,2.2-.29l6.16,3.52a28,28,0,0,1,8.94-5.13V59.27a1.6,1.6,0,0,1,1.32-1.76,37.46,37.46,0,0,1,16.12,0,1.6,1.6,0,0,1,1.32,1.76v7.19a28.06,28.06,0,0,1,9,5.13l6.15-3.67a1.72,1.72,0,0,1,2.2.44,36.43,36.43,0,0,1,8.06,13.78,1.51,1.51,0,0,1-.88,2l-6.15,3.67a30.47,30.47,0,0,1,0,10.26Zm-42.14-.52A11.66,11.66,0,1,0,63.19,93,11.28,11.28,0,0,0,66.64,101.27Z" style="fill:#ffed4d"/><path d="M105.94,98.7a1.51,1.51,0,0,1,.88,2,36.43,36.43,0,0,1-8.06,13.78,1.55,1.55,0,0,1-2.05.44L90.4,111.3a28,28,0,0,1-8.94,5.13v7.19a1.6,1.6,0,0,1-1.32,1.76,36.81,36.81,0,0,1-16,0,1.63,1.63,0,0,1-1.46-1.76v-7.19a28,28,0,0,1-9-5.13L47.6,115a1.72,1.72,0,0,1-2.2-.44,36.31,36.31,0,0,1-8.06-13.78,1.57,1.57,0,0,1,.88-2L44.37,95a30.13,30.13,0,0,1,0-10.26l-6.15-3.66a1.52,1.52,0,0,1-.88-2.06A36.38,36.38,0,0,1,45.4,65.27,1.59,1.59,0,0,1,47.6,65l6.15,3.52a28,28,0,0,1,9-5.13V56.19A1.59,1.59,0,0,1,64,54.43a37.15,37.15,0,0,1,16.12,0,1.59,1.59,0,0,1,1.32,1.76v7.18A28,28,0,0,1,90.4,68.5l6.16-3.67a1.72,1.72,0,0,1,2.2.44,36.51,36.51,0,0,1,8.06,13.78,1.52,1.52,0,0,1-.88,2.06l-6.16,3.66a30,30,0,0,1,0,10.26ZM63.8,98.18A11.71,11.71,0,1,0,80.36,81.62,11.71,11.71,0,1,0,63.8,98.18Z" style="fill:none;stroke:#000;stroke-linecap:round;stroke-linejoin:round;stroke-width:2px"/></svg>