<svg xmlns="http://www.w3.org/2000/svg" viewBox="0 0 960.63 264"><title>schedule</title><path d="M874.19,10H598.89a4.83,4.83,0,0,0-4.83,4.83V163.44a4.83,4.83,0,0,0,4.83,4.83h275.3l75-75.05a4.82,4.82,0,0,0,0-6.8Z" style="fill:#ffed4d"/><path d="M874.19,10l75.07,76.42a4.82,4.82,0,0,1,0,6.8l-75,75.05H598.89a4.83,4.83,0,0,1-4.83-4.83V14.83A4.83,4.83,0,0,1,598.89,10h275.3m4.19-10H598.89a14.84,14.84,0,0,0-14.83,14.83V163.44a14.84,14.84,0,0,0,14.83,14.83h285.3v-5.86l72.12-72.12a14.88,14.88,0,0,0,.09-20.88L881.32,3l-2.94-3Z" style="fill:#fff"/><path d="M582.86,10H307.56a4.83,4.83,0,0,0-4.83,4.83V163.44a4.83,4.83,0,0,0,4.83,4.83h275.3l75-75.05a4.82,4.82,0,0,0,0-6.8Z" style="fill:#ffed4d"/><path d="M582.86,10l75.07,76.42a4.82,4.82,0,0,1,0,6.8l-75,75.05H307.56a4.83,4.83,0,0,1-4.83-4.83V14.83A4.83,4.83,0,0,1,307.56,10h275.3m4.19-10H307.56a14.84,14.84,0,0,0-14.83,14.83V163.44a14.84,14.84,0,0,0,14.83,14.83h285.3v-5.86L665,100.29a14.88,14.88,0,0,0,.09-20.88L590,3l-2.94-3Z" style="fill:#fff"/><path d="M914.69,185.57H15.3a5.36,5.36,0,0,0-5.45,5.28v67.87A5.36,5.36,0,0,0,15.3,264l899.39-.49,34.71-34.84a5.16,5.16,0,0,0,.05-7.83Z" style="fill:#ffed4d"/><path d="M224.8,240.85c-2.32,1.25-4-1.85-1.82-2.92A32.74,32.74,0,0,0,233.54,229a22,22,0,0,0-4-2c-1.81-.63-.53-3.63,1.82-2.72a30.65,30.65,0,0,1,4.23,2,42.23,42.23,0,0,0,4.24-7.87c1.18-2.82,4.61-1,3.53,1.15a79.45,79.45,0,0,1-4.87,8.5,14.33,14.33,0,0,1,3.36,3.06,1.91,1.91,0,0,1-.37,2.65,1.58,1.58,0,0,1-2.39-.26,15.2,15.2,0,0,0-2.72-2.56A37,37,0,0,1,224.8,240.85Z"/><path d="M263.59,225.05a12.43,12.43,0,0,0-5-2.48c-2-.47-1.17-3.87,1.38-3.16a21.26,21.26,0,0,1,5.92,2.55,2,2,0,0,1,.44,2.79A1.78,1.78,0,0,1,263.59,225.05Zm-2.08,13.89c-2.86.9-3.94-2.93-1.15-3.63,6.76-1.72,13.55-8.68,16.94-15.26,1.08-2.09,4.54-.68,3.06,2C276.2,229.59,269.24,236.48,261.51,238.94Z"/><path d="M292.3,240.28c-2.69,1-4-2.12-1.45-3a26.1,26.1,0,0,0,11.23-7.66,14.67,14.67,0,0,0-3.53-1.61c-1.88-.51-1-3.37,1.34-2.69a21.87,21.87,0,0,1,4.24,1.74,33.4,33.4,0,0,0,2.82-4.8c.64-1.38.51-1.55-.37-1.51-1.34,0-4.8.37-5.95.5-2.35,3.09-5.44,6.62-7.69,8.2s-4.24-1.38-1.95-2.79c3.26-2,7.76-7.7,9-10.59s4.64-.77,3.46,1.18c-.16.27-.37.57-.6.91,1.65-.14,3.49-.31,5.11-.37,3.46-.1,4.06,2.32,2.75,4.7s-2.48,4.34-3.79,6.26a12.77,12.77,0,0,1,2.42,2.11,1.84,1.84,0,0,1-.07,2.56,1.62,1.62,0,0,1-2.39-.1,19.16,19.16,0,0,0-2-1.82A29,29,0,0,1,292.3,240.28Z"/><path d="M324.84,228.18a1.63,1.63,0,0,1-1.79-1.61,1.72,1.72,0,0,1,1.79-1.72H346a1.67,1.67,0,1,1,0,3.33Z"/><path d="M362.28,218.2c-1.74-2.16,1.55-4,2.89-2a34.13,34.13,0,0,1,3.94,7.83,63.38,63.38,0,0,1,5.91-3.7c2.29-1.28,4,1.95,1.45,3.26a50.87,50.87,0,0,0-9.55,6c-3.33,2.83-3.43,5.35-.8,6.62,2.35,1.18,7.16.31,9.17-.43,2.83-1.08,3.83,2.79.84,3.63-2.65.74-8.27,1.41-11.59-.27-4.84-2.46-4.64-7.9.8-12.24.34-.27.64-.54,1-.77A27.3,27.3,0,0,0,362.28,218.2Z"/><path d="M404.61,222c-.54,4.27-3.57,10.62-6.79,13.62-2.59,2.38-5.42,1.07-6.9-1.82-2.11-4.17.14-10.42,4.64-13.55,4.14-2.85,10.29-3.32,14.52-.77,5.21,3.13,6.06,9.31,3.13,14.12-1.58,2.59-4.87,4.67-8.2,5.55-3,.77-4-2.63-1.11-3.3,2.55-.57,5.14-2,6.25-3.76,2.39-3.77,1.48-8.17-1.85-10.29a8.69,8.69,0,0,0-4.17-1.34A1.67,1.67,0,0,1,404.61,222Zm-7.47.64c-3.12,2.42-4.8,6.89-3.39,9.48.5,1,1.38,1.48,2.22.74,2.52-2.22,4.87-7.56,5.21-11.19a2.32,2.32,0,0,1,.3-1A11.28,11.28,0,0,0,397.14,222.6Z"/><path d="M430.05,238c.24-5.88,1-15.33,1.28-20.2.13-2.49,1.68-3.77,3.26-3.77A3.68,3.68,0,0,1,438,217c1.27,4,4.23,14.46,5,16.1.1.21.2.31.33.31s.24-.1.31-.31c1.27-3.09,4-12.43,5.27-16.26a3.71,3.71,0,0,1,3.47-2.76,3.47,3.47,0,0,1,3.36,3.66c.1,4.34.84,15.26,1.11,20v.13a1.81,1.81,0,0,1-1.95,1.75,1.88,1.88,0,0,1-2-1.75c-.34-4.81-.67-18.15-.67-18.15,0-.57-.14-.81-.3-.81s-.41.31-.51.71c-.74,2.79-4.2,13.71-5.58,17.31a2.92,2.92,0,0,1-2.62,1.92,2.61,2.61,0,0,1-2.42-1.89c-1.08-2.55-4-13.21-5.28-17.17-.13-.41-.3-.64-.44-.64s-.3.27-.37,1c-.23,3-.7,13.18-.87,17.82a1.85,1.85,0,0,1-2,1.68,1.6,1.6,0,0,1-1.78-1.51Z"/><path d="M468.27,237.83c.07-2.62.1-7.5.1-11.94,0-2.95,0-5.74-.07-7.52,0-.68-.1-.68-2.08-.68-1.28,0-2.86.07-4.44.07a1.79,1.79,0,0,1-1.91-1.82,1.73,1.73,0,0,1,1.85-1.78h.06c2,0,5.58.07,9.08.07,2.86,0,5.71,0,7.63-.07a1.7,1.7,0,0,1,1.75,1.82,1.63,1.63,0,0,1-1.62,1.78h-.13c-1.14-.07-2.12-.07-2.92-.07-3.33,0-3.33,0-3.33.68-.07,2.28-.1,5.54-.1,8.84,0,4,.06,8.13.17,10.62.06,1.17-1,1.75-2,1.75a1.83,1.83,0,0,1-2-1.72Z"/><path d="M501.25,229.79c-.34,0-2,0-3.87.1h-.07a1.79,1.79,0,0,1-1.68-1.94c0-1.79,1.45-1.79,2.56-1.79,1.65,0,3.53.07,4.64.07,2.89,0,4,1.48,4,3.56,0,3.84-3.42,10.12-11.42,10.12a12.38,12.38,0,0,1-12.58-12.81c0-6.82,4.81-13.31,13-13.31,5.35,0,9,3.1,9,4.91a2.12,2.12,0,0,1-2,2.09,2.16,2.16,0,0,1-1.72-.91,7.06,7.06,0,0,0-5.54-2.39c-5.89,0-8.74,5.14-8.74,9.45,0,4.47,2.89,9.07,8.64,9.07,5.54,0,7.05-4.3,7.05-5.27,0-.64-.5-1-1.11-1Z"/><path d="M526.83,241.93c-4.1-3.63-6.19-9.31-6.19-15a20.37,20.37,0,0,1,6.12-15,2,2,0,0,1,1.31-.57,1.81,1.81,0,0,1,1.78,1.78,1.91,1.91,0,0,1-.74,1.45,15.79,15.79,0,0,0-5.24,12.17,16.33,16.33,0,0,0,5.28,12.37,1.68,1.68,0,0,1,.6,1.31,2,2,0,0,1-1.85,2A1.74,1.74,0,0,1,526.83,241.93Z"/><path d="M546.76,230.57v-1.38c0-.88-.4-1-1.55-1H543.9c-.63,0-1.84,0-1.84-1.44a1.43,1.43,0,0,1,1.41-1.51c1.21,0,2.15,0,3.26,0,2.15.07,3.16,1,3.16,3.16,0,2-.07,4.27-.07,6.42,2.15,2.76,5.75,3.39,10.19,3.39,3.36,0,7-.36,9.54-.57h.17a1.57,1.57,0,0,1,1.61,1.62,1.64,1.64,0,0,1-1.68,1.64c-2.11.21-5.17.41-8.23.41-8.47,0-10.69-1.62-13.15-4.14-1.68,1.89-3.76,4-5.07,4a1.9,1.9,0,0,1-1.85-1.78,1.44,1.44,0,0,1,.84-1.28,16,16,0,0,0,4.5-3.49C546.73,233.16,546.76,231.84,546.76,230.57Zm.54-11.4a10,10,0,0,0-3.3-2.92,1.18,1.18,0,0,1-.67-1,1.73,1.73,0,0,1,1.72-1.52c1,0,5.21,2.59,5.21,4.31a2,2,0,0,1-1.82,1.88A1.32,1.32,0,0,1,547.3,219.17Zm18.92,5c0-3.06,0-6.12-.06-7.46,0-1.08-1-1.11-5-1.11-1.41,0-2.79,0-4.3,0-1.08,0-1.48.57-1.48,1.45,0,1,0,2.45,0,4,0,4.44-.27,10.32-2.12,13.55a1.74,1.74,0,0,1-1.58.94,1.62,1.62,0,0,1-1.71-1.35,1,1,0,0,1,.17-.6c2-3.19,2.35-7.63,2.35-11.36,0-2.12-.14-4-.17-5.41v-.21c0-2.38,1.21-3.66,4-3.69,1.48,0,2.89,0,4.27,0,1.72,0,3.43,0,5.24.07a3.13,3.13,0,0,1,3.37,3.26c0,1.41,0,3.43,0,5.45v7.66c0,.5.07,2.45.1,3.56v.14c0,1.95-1.21,3.8-4.81,3.8-1.84,0-3.49-.2-3.49-1.58a1.42,1.42,0,0,1,1.44-1.45,1.16,1.16,0,0,1,.34,0,10.19,10.19,0,0,0,1.71.21c1,0,1.65-.37,1.65-1.82C566.19,232.28,566.22,228.25,566.22,224.18Zm-9.21.17a1.15,1.15,0,1,1,0-2.29h0l2.26,0v-1.75l-2,0h0a1.12,1.12,0,0,1-1.18-1.14,1.1,1.1,0,0,1,1.18-1.14h0l2,0v-1a1.49,1.49,0,0,1,2.93,0v1l2.12,0h0a1.14,1.14,0,0,1,0,2.28h0l-2.16,0v1.75l2.39,0h0a1.15,1.15,0,1,1,0,2.29Zm3.23,8.7c-1.81,0-3.66-.13-3.76-1.91,0-.61,0-1.21,0-1.85,0-3.33,0-3.73,4.47-3.73,3.33,0,3.94.37,3.94,3.53,0,.67,0,1.34,0,1.91C564.75,233,562.7,233.05,560.24,233.05Zm.4-5.44c-1.68,0-1.71.1-1.71,1.65s.13,1.58,1.78,1.58,1.55-.17,1.55-1.45C562.26,227.68,562.26,227.61,560.64,227.61Z"/><path d="M580.31,238.63c-2.69-6.62,0-16.57.57-20.57.37-2.48,3.63-1.75,3.26.2-.54,2.73-2.55,10.63-1.75,13.75.1.44.24.34.37,0s.44-.84.58-1.08a1.35,1.35,0,0,1,2.35,1.31,17,17,0,0,0-2,4.71c-.21.91.2,1.95-.64,2.69S581,240.28,580.31,238.63Zm9-2.38a1.67,1.67,0,0,1,2.39-2.32c1.81,1.65,5.84,1.11,8.47.57s2.89,3,.67,3.56C597.25,239,591.74,238.87,589.32,236.25Zm1.92-13.41a1.59,1.59,0,1,1-.48-3.13,20.35,20.35,0,0,1,8.85-.2c2.35.57,1.71,3.73-.58,3.22A17,17,0,0,0,591.24,222.84Z"/><path d="M625.76,239.68a1.87,1.87,0,0,1-2-1.85c0-3.13.14-10.29.14-14.73,0-4.7-.17-5.07-1.31-5.07h-.47a1.68,1.68,0,0,1-1.72-1.78,2,2,0,0,1,1.75-2.05c.67,0,.94,0,1.65,0a3.58,3.58,0,0,1,3.9,3.6c0,.44,0,1,0,1.78,0,2.69-.1,7.2-.1,12,0,2.09,0,4.2.07,6.29v.07A1.81,1.81,0,0,1,625.76,239.68Z"/><path d="M672.25,217.93c-1.82,0-5.08-.07-8.41-.07-4.06,0-8.27,0-10.28.07-1.18,0-1.62.57-1.62,1.51-.06,6.08.41,15.36-3.39,20.17a1.84,1.84,0,0,1-1.51.77,1.74,1.74,0,0,1-1.79-1.51,1.21,1.21,0,0,1,.31-.77c2.79-3.47,3.22-8.88,3.22-13.82,0-1.78,0-3.46-.06-5v-.1c0-2.69,1.31-4.07,4.37-4.13,1.64,0,3.79-.07,6.15-.07v-1.78a1.75,1.75,0,0,1,3.49,0V215c3.77,0,7.47,0,9.55.07a1.42,1.42,0,0,1,1.58,1.41,1.48,1.48,0,0,1-1.58,1.48Zm-17.79,13.88a1.22,1.22,0,0,1-1.27-1.31,1.26,1.26,0,0,1,1.27-1.34h12.11c2,0,2.79,1,2.79,2.15,0,2.15-3.7,5.21-4.07,5.51a23.75,23.75,0,0,0,7.36,1.24,1.48,1.48,0,0,1,1.55,1.52,1.65,1.65,0,0,1-1.82,1.61,25.72,25.72,0,0,1-9.88-2.56,27.31,27.31,0,0,1-10.32,2.83,1.55,1.55,0,0,1-1.75-1.48,1.44,1.44,0,0,1,1.45-1.41,23.31,23.31,0,0,0,7.69-1.68c-.67-.47-3.09-2.26-3.09-3.23a1.69,1.69,0,0,1,1.72-1.48,1.22,1.22,0,0,1,.94.4,14.29,14.29,0,0,0,3.19,2.76,9.15,9.15,0,0,0,3.06-3.29c0-.21-.24-.31-.44-.31h-2.52c-2.52,0-5.51,0-7.93.07Zm13.28-8.17c0,3.6,0,4.31-5.61,4.31-4.54,0-5.08-.17-5.08-4.31h-3.46a1.18,1.18,0,0,1-1.21-1.27,1.23,1.23,0,0,1,1.21-1.32H657c0-.63,0-1.17,0-1.64,0-.78.74-1.18,1.48-1.18s1.48.4,1.48,1.21v1.61h4.74v-1.58a1.3,1.3,0,0,1,1.45-1.21,1.37,1.37,0,0,1,1.51,1.25v1.54h3.93a1.3,1.3,0,0,1,0,2.59Zm-3-.13H660c0,2.12,0,2.22,2.42,2.22,1.65,0,2.25-.1,2.32-.94Z"/><path d="M683.85,238.67c-2.06-6.15-.85-12.64-.17-16.81.27-1.71.53-3.16.8-4.81.34-2.11,3.73-1.74,3.37.24-.24,1.38-.64,3-1,4.67-.67,3.73-1.48,6.42-1.24,9,.1,1,.2,1.38.64.37.1-.24.23-.34.4-.74.88-2,3.23-.27,2.39,1.24a16.14,16.14,0,0,0-1.82,5.35c-.1.67.14,2-.47,2.58C686,240.52,684.45,240.45,683.85,238.67Zm10.25.37c-3.06-1.48-3.3-5.21.27-6.69a9.79,9.79,0,0,1,5.78-.51,3.68,3.68,0,0,0-.07-.63c-.13-1.75-.17-2.93-.17-4.34a14.66,14.66,0,0,1-6.69.17,1.54,1.54,0,1,1,1.08-2.89,12.8,12.8,0,0,0,5.58-.37,12.67,12.67,0,0,0-.51-2.83c-.3-1.74,2.59-2.22,3.17-.64a5.83,5.83,0,0,1,.4,2.53,13.72,13.72,0,0,0,1.34-.58c1.89-.94,3.57,1.79,1.05,2.86a25.82,25.82,0,0,1-2.59,1,29.75,29.75,0,0,0,.06,4.77c0,.57.14,1.24.21,1.88a13.86,13.86,0,0,1,4,2.59c1.62,1.51-.47,4.34-2.18,2.56a13.9,13.9,0,0,0-2-1.69C701.8,238.87,698.1,241,694.1,239Zm.23-19.9a1.49,1.49,0,1,1,.78-2.86c2.25.44,7.09-.7,8.47-1.11,2-.6,3.26,2.32.6,3S697.29,219.71,694.33,219.14ZM700,234.67a6.27,6.27,0,0,0-4.61,0,1,1,0,0,0-.07,2c2,.95,4.21.14,4.61-1.64Z"/><path d="M721.06,218.2c-1.75-2.16,1.54-4,2.89-2a34.11,34.11,0,0,1,3.93,7.83,63.58,63.58,0,0,1,5.92-3.7c2.28-1.28,4,1.95,1.44,3.26a50.46,50.46,0,0,0-9.54,6c-3.33,2.83-3.43,5.35-.81,6.62,2.35,1.18,7.16.31,9.18-.43,2.82-1.08,3.83,2.79.84,3.63-2.66.74-8.27,1.41-11.6-.27-4.84-2.46-4.64-7.9.81-12.24.33-.27.63-.54,1-.77A27.28,27.28,0,0,0,721.06,218.2Zm16.74,1.48a11.49,11.49,0,0,0-2.49-2.32c-1.61-.91-.07-2.76,1.41-2a11.08,11.08,0,0,1,3.06,2.42C740.92,219.34,738.74,221.12,737.8,219.68Zm3.43-2.59a11.73,11.73,0,0,0-2.56-2.19c-1.65-.87-.17-2.75,1.35-2.05a10.75,10.75,0,0,1,3.12,2.32C744.32,216.68,742.2,218.5,741.23,217.09Z"/><path d="M756.35,242.27a1.88,1.88,0,0,1-1.78-1.85,1.78,1.78,0,0,1,.64-1.31,16.48,16.48,0,0,0,5.18-12.41c0-4.67-1.72-9.28-5.11-12.13a1.86,1.86,0,0,1-.74-1.45,1.65,1.65,0,0,1,1.64-1.65,2.12,2.12,0,0,1,1.35.57c4.13,3.7,6.18,9.32,6.18,14.93s-2.11,11.29-6.25,14.86A1.75,1.75,0,0,1,756.35,242.27Z"/><path d="M290.12,10H14.83A4.83,4.83,0,0,0,10,14.83V163.44a4.83,4.83,0,0,0,4.83,4.83H290.12l75.05-75.05a4.82,4.82,0,0,0,0-6.8Z" style="fill:#ffed4d"/><path d="M290.12,10,365.2,86.42a4.82,4.82,0,0,1,0,6.8l-75.05,75.05H14.83A4.83,4.83,0,0,1,10,163.44V14.83A4.83,4.83,0,0,1,14.83,10H290.12m4.2-10H14.83A14.84,14.84,0,0,0,0,14.83V163.44a14.84,14.84,0,0,0,14.83,14.83H300.12v-5.86l72.12-72.12a14.87,14.87,0,0,0,.1-20.88L297.26,3l-2.94-3Z" style="fill:#fff"/><path d="M78.6,71A20.78,20.78,0,0,0,91.94,57.62c.27-.91.17-1.75-1.07-1.79-3.3-.1-8.61.11-13.45.27a1.66,1.66,0,1,1-.06-3.32c4.43-.21,10.72-.24,15-.17,2.72,0,4.64,2.08,3.66,4.84-2.35,6.72-6.45,13.24-15.86,16.84C77.29,75.37,76,71.84,78.6,71ZM94,50.86c-1.71-.71-.37-2.72,1.18-2.15a10.23,10.23,0,0,1,3.33,2c1.31,1.41-.67,3.46-1.78,2.15A11.51,11.51,0,0,0,94,50.86ZM97,48c-1.71-.67-.47-2.69,1.11-2.19a10.87,10.87,0,0,1,3.39,1.92c1.35,1.34-.57,3.46-1.71,2.18A12.64,12.64,0,0,0,97,48Z"/><path d="M109.42,62.69a1.61,1.61,0,0,1-1.78-1.61,1.72,1.72,0,0,1,1.78-1.72h21.12a1.67,1.67,0,1,1,0,3.33Z"/><path d="M143,73.18c-2.45.91-3.59-2.39-1.07-3.26,6.11-2.12,11.43-7.5,14.08-12.5.3-.58.17-1.11-.57-1.11-2.12,0-6.76.13-9.71.2-2,.06-2.16-3.16,0-3.26,2.45-.1,7.39-.17,10.79-.17,3,0,4.74,1.91,3.42,4.2A54,54,0,0,1,156.18,63c2.79,1.68,7.06,4.5,8.61,6.65,1.34,1.88-1.18,4.51-2.76,2.52a35,35,0,0,0-7.86-6.75A28.45,28.45,0,0,1,143,73.18Z"/><path d="M186.34,73.38c.06,2.72-3.77,2.83-3.63.14.23-5.45.33-18.63.2-23.47-.07-2.28,3.56-2.25,3.49,0,0,1.64-.06,4.57-.1,7.86a2.88,2.88,0,0,1,.57,0c1.89.3,6.26,1.37,8.07,2.92s-.17,4.4-2.08,3a21.14,21.14,0,0,0-6.56-2.72C186.27,65.82,186.27,70.66,186.34,73.38Z"/><path d="M233.13,60.71a2.22,2.22,0,0,1-1.11-.37A61.79,61.79,0,0,1,221.73,51c-.37-.43-.67-.67-1-.67s-.57.24-.91.67a64.19,64.19,0,0,1-10.29,10.12,2.44,2.44,0,0,1-1.51.57A1.8,1.8,0,0,1,206.2,60a1.7,1.7,0,0,1,.91-1.45c3.63-2.11,8-6.58,10.42-9.78a3.7,3.7,0,0,1,3-1.58,4.45,4.45,0,0,1,3.23,1.55,48.56,48.56,0,0,0,10.72,8.77,1.32,1.32,0,0,1,.74,1.21A2.15,2.15,0,0,1,233.13,60.71Zm-6.52,14.18c-2,.07-3.9.11-5.82.11s-3.76,0-5.65-.11c-2.45-.1-3.69-1.47-3.79-3.42,0-.61,0-1.32,0-2,0-.94,0-1.92,0-2.69.06-1.58,1-3.23,3.73-3.33,1.41,0,3.12-.07,4.94-.07,2.22,0,4.6,0,6.76.07a3.47,3.47,0,0,1,3.56,3c0,.7.07,1.54.07,2.42s0,1.71-.07,2.55A3.64,3.64,0,0,1,226.61,74.89ZM215.38,59.73a1.48,1.48,0,1,1,0-2.95h11.29a1.48,1.48,0,1,1,0,2.95Zm11.73,9.62c0-2.52-.07-3.13-1.61-3.16-1.25,0-2.69-.07-4.2-.07-1.82,0-3.67,0-5.25.07s-1.58,1.07-1.58,3c0,2.48.3,2.82,1.62,2.85s3,.07,4.63.07,3.3,0,4.85-.07S227.11,70.86,227.11,69.35Z"/><path d="M244.89,63.3c-2.48,2.59-3.12,2.89-3.76,2.89a1.66,1.66,0,0,1-1.58-1.65,1.5,1.5,0,0,1,.7-1.28,23,23,0,0,0,7-8.57,1.41,1.41,0,0,1,1.27-.87,1.8,1.8,0,0,1,1.79,1.68c0,.57-.37,1.21-2.26,3.9l-.37,15.26a1.54,1.54,0,0,1-1.61,1.48,1.43,1.43,0,0,1-1.55-1.41v-.07Zm14.69-5.45c-.2.88-.47,1.92-.67,2.56,1.21,0,2.35,0,3.33.06a3.38,3.38,0,0,1,3.23,2.89c.06,1.52.13,4.78.13,7.06,0,.71,0,1.31,0,1.75a3.47,3.47,0,0,1-3.43,3.3c-1.18.06-2.49.1-3.73.1s-2.52,0-3.67-.1c-2.15-.14-3.46-1.45-3.53-3.26,0-.51,0-1.15,0-1.82,0-2.32.07-5.35.13-6.79a3.26,3.26,0,0,1,3.4-3.13c.44,0,.91,0,1.34,0,0-.07,0-.1,0-.17.17-.77.3-1.44.43-2.42H252a1.38,1.38,0,1,1,0-2.76h12.57V55c0-2,0-2.42-1.81-2.45-2.69,0-6.09-.07-9.38-.07-2.72,0-5.35,0-7.4.07-1.81,0-1.91.61-1.95,1.45v1.44a1.49,1.49,0,0,1-1.64,1.35c-1.65,0-1.68-1.18-1.68-2.49,0-1.78.06-4.3,3.59-4.34,2.66,0,5.48-.1,8.34-.1V47.5a1.75,1.75,0,0,1,3.5,0v2.35c2.68,0,5.31.07,7.83.1,1.81,0,3.86.94,3.93,3.09,0,.37,0,.64,0,1,0,1-.1,2.21-1.78,2.21a2.84,2.84,0,0,1-.5-.06,1.12,1.12,0,0,1,0,.33,1.34,1.34,0,0,1-1.41,1.38ZM254,69c0,1,0,1.95,0,2.46.06,1.34.8,1.34,4.43,1.34,3,0,4.11,0,4.17-1.38V69Zm8.64-2.52c0-2.49,0-3.43-1.48-3.49-.84,0-1.88-.07-2.89-.07s-2,0-2.75.07a1.33,1.33,0,0,0-1.42,1.37c0,.44,0,1.21-.06,2.12Z"/><path d="M433.11,65.65c-2.62,0-5.21-.07-7.56-.17a3.5,3.5,0,0,1-3.7-3.39c0-1.05-.07-2.09-.07-3.13s0-2,.07-2.89a3.51,3.51,0,0,1,3.63-3.46c2.32-.07,4.94-.1,7.63-.1V47.73a1.54,1.54,0,0,1,1.68-1.48,1.58,1.58,0,0,1,1.72,1.48v4.78c2.72,0,5.41,0,7.83.1a3.69,3.69,0,0,1,3.46,3.19c.07.81.1,1.82.1,2.86s0,2.38-.1,3.39a3.66,3.66,0,0,1-3.63,3.43c-2.45.1-5,.17-7.66.17v9c0,.9-.84,1.37-1.72,1.37a1.5,1.5,0,0,1-1.68-1.37Zm0-10.12c-2.35,0-4.57.07-6.38.1A1.55,1.55,0,0,0,425.08,57c0,.64-.07,1.45-.07,2.22,0,2.12,0,3.16,1.75,3.23s4.07.17,6.35.17Zm3.4,7.09c2.25,0,4.47-.06,6.45-.13,1.62-.07,1.68-.81,1.68-3.43s-.06-3.39-1.71-3.43c-1.85-.06-4.1-.1-6.42-.1Z"/><path d="M456.47,76.07a1.46,1.46,0,0,1-1.61-1.38v-.06c.24-6.16.17-16.78.24-24.07,0-3.3,2.32-3.3,5.74-3.3,1.28,0,2.63,0,3.27,0A2.9,2.9,0,0,1,467.16,50c0,1.18.07,2.39.07,3.57,0,4.23-.07,5.07-6.69,5.07-.87,0-1.71,0-2.32-.07v3c0,3.63,0,8.34-.13,13.08A1.48,1.48,0,0,1,456.47,76.07Zm7.8-24.24c0-.37,0-.7,0-1-.07-.94-.24-1-2.92-1s-3,.1-3.06,1.31c0,.24,0,.51,0,.77Zm-6,2.22V56.1c.47,0,1.48,0,2.49,0,3.26,0,3.5-.14,3.53-1.08,0-.3,0-.64,0-1Zm13,18.29c-.91.07-1.92.1-2.9.1s-2,0-2.92-.1a3.26,3.26,0,0,1-3.33-3.13c0-.47,0-1,0-1.61,0-1.51.07-3.26.13-4.6a3.11,3.11,0,0,1,3.16-3c.88,0,1.82-.06,2.73-.06,1.1,0,2.21,0,3.19.06a3.16,3.16,0,0,1,3.06,2.76c.1,1.18.13,2.66.13,4,0,.88,0,1.68,0,2.39A3.32,3.32,0,0,1,471.27,72.34Zm-6.56-5.18c0,2.63,0,2.66,3.5,2.66,2.48,0,3.46,0,3.53-1.35,0-.37,0-.84,0-1.31Zm7-2.38c0-.41-.07-.74-.07-1.05-.07-1.24-.71-1.34-3-1.34-.84,0-1.75,0-2.56,0a1.3,1.3,0,0,0-1.31,1.35c0,.3-.07.64-.07,1Zm4.7-6.19c-4,0-6.75,0-6.86-3,0-.67,0-1.41,0-2.11,0-1.18,0-2.39.07-3.57a2.85,2.85,0,0,1,3-2.65c.64,0,2.05,0,3.36,0,1,0,1.92,0,2.49,0,2.49.13,3.53,1.48,3.53,3v2.52c0,5,.07,10.25.07,14.52,0,1.58,0,3,0,4.17,0,2.39-1.18,4.47-5,4.47-2.35,0-3.56-.3-3.56-1.78a1.36,1.36,0,0,1,1.31-1.48c.1,0,.17,0,.27,0a12.11,12.11,0,0,0,1.78.2c1.11,0,1.95-.4,2-2,0-1.34.07-2.79.07-4.3,0-2.25,0-4.57,0-6.69V58.52C478.29,58.56,477.42,58.59,476.44,58.59Zm2.39-6.76c0-2-.07-2.08-3.16-2.08-2.69,0-3.06,0-3.13,1.08,0,.3,0,.67,0,1Zm.07,2.22h-6.39c0,.37,0,.71,0,1,0,.94.14,1.08,3.7,1.08,1.11,0,2.19,0,2.66,0Z"/><path d="M514.49,60.71a2.18,2.18,0,0,1-1.1-.37A61.4,61.4,0,0,1,503.1,51c-.37-.43-.67-.67-1-.67s-.57.24-.9.67a64.6,64.6,0,0,1-10.29,10.12,2.47,2.47,0,0,1-1.51.57A1.8,1.8,0,0,1,487.57,60a1.7,1.7,0,0,1,.91-1.45c3.63-2.11,8-6.58,10.42-9.78a3.69,3.69,0,0,1,3-1.58,4.48,4.48,0,0,1,3.23,1.55,48.33,48.33,0,0,0,10.72,8.77,1.32,1.32,0,0,1,.74,1.21A2.15,2.15,0,0,1,514.49,60.71ZM508,74.89c-2,.07-3.9.11-5.81.11s-3.77,0-5.65-.11c-2.45-.1-3.7-1.47-3.8-3.42,0-.61,0-1.32,0-2,0-.94,0-1.92,0-2.69.07-1.58,1-3.23,3.73-3.33,1.42,0,3.13-.07,4.94-.07,2.22,0,4.61,0,6.76.07a3.47,3.47,0,0,1,3.56,3c0,.7.07,1.54.07,2.42s0,1.71-.07,2.55A3.64,3.64,0,0,1,508,74.89ZM496.75,59.73a1.48,1.48,0,1,1,0-2.95H508a1.48,1.48,0,1,1,0,2.95Zm11.73,9.62c0-2.52-.07-3.13-1.62-3.16-1.24,0-2.69-.07-4.2-.07-1.81,0-3.66,0-5.24.07s-1.58,1.07-1.58,3c0,2.48.3,2.82,1.61,2.85s3,.07,4.64.07,3.29,0,4.84-.07S508.48,70.86,508.48,69.35Z"/><path d="M526.26,63.3c-2.49,2.59-3.13,2.89-3.77,2.89a1.67,1.67,0,0,1-1.58-1.65,1.52,1.52,0,0,1,.71-1.28,22.91,22.91,0,0,0,7-8.57,1.43,1.43,0,0,1,1.28-.87,1.8,1.8,0,0,1,1.78,1.68c0,.57-.37,1.21-2.25,3.9l-.37,15.26a1.54,1.54,0,0,1-1.61,1.48,1.43,1.43,0,0,1-1.55-1.41v-.07ZM541,57.85c-.2.88-.47,1.92-.67,2.56,1.21,0,2.35,0,3.33.06a3.36,3.36,0,0,1,3.22,2.89c.07,1.52.14,4.78.14,7.06,0,.71,0,1.31,0,1.75a3.47,3.47,0,0,1-3.43,3.3c-1.17.06-2.48.1-3.73.1s-2.52,0-3.66-.1c-2.15-.14-3.46-1.45-3.53-3.26,0-.51,0-1.15,0-1.82,0-2.32.06-5.35.13-6.79a3.25,3.25,0,0,1,3.4-3.13c.43,0,.9,0,1.34,0,0-.07,0-.1,0-.17.17-.77.31-1.44.44-2.42h-4.5a1.38,1.38,0,1,1,0-2.76H546V55c0-2,0-2.42-1.82-2.45-2.69,0-6.08-.07-9.38-.07-2.72,0-5.34,0-7.39.07-1.82,0-1.92.61-2,1.45v1.44a1.49,1.49,0,0,1-1.65,1.35c-1.64,0-1.68-1.18-1.68-2.49,0-1.78.07-4.3,3.6-4.34,2.65,0,5.48-.1,8.34-.1V47.5a1.75,1.75,0,0,1,3.49,0v2.35c2.69,0,5.31.07,7.83.1,1.82,0,3.87.94,3.94,3.09,0,.37,0,.64,0,1,0,1-.1,2.21-1.78,2.21a3,3,0,0,1-.51-.06.86.86,0,0,1,0,.33,1.34,1.34,0,0,1-1.41,1.38ZM535.37,69c0,1,0,1.95,0,2.46.07,1.34.81,1.34,4.44,1.34,3,0,4.1,0,4.17-1.38V69ZM544,66.49c0-2.49,0-3.43-1.48-3.49-.84,0-1.88-.07-2.89-.07s-2,0-2.76.07a1.32,1.32,0,0,0-1.41,1.37c0,.44,0,1.21-.07,2.12Z"/><path d="M724.64,54.76c-2.75,0-5.54-.07-8.33-.07A45.5,45.5,0,0,0,717.82,64a35,35,0,0,0,2.69-6.16,1.32,1.32,0,0,1,1.31-.9,1.9,1.9,0,0,1,1.95,1.71c0,1.08-2.59,6.32-4.54,9,2,4,3.23,4.27,3.36,4.27.58,0,1-.8,1.69-2.62a1.4,1.4,0,0,1,1.37-1.07A1.8,1.8,0,0,1,727.47,70c0,.57-1.55,5.65-4.91,5.65-1,0-3.23-.47-5.58-5.18-4.64,4.91-9,5.75-9.34,5.75A1.59,1.59,0,0,1,706,74.56,1.64,1.64,0,0,1,707.27,73a16.77,16.77,0,0,0,8.33-5.72,50.64,50.64,0,0,1-2.52-12.53c-2.79,0-5.54,0-8.17,0a1.29,1.29,0,0,0-1.38,1.38v2c.81,0,1.69,0,2.56,0s1.68,0,2.32,0A3.16,3.16,0,0,1,711.67,61c0,.41.07,1.14.07,2a14.17,14.17,0,0,1-.34,3.62,5.4,5.4,0,0,1-5.48,3.7c-1.65,0-2.62-.3-2.62-1.81,0-.81.44-1.58,1.24-1.58a1.5,1.5,0,0,1,.37,0,6.46,6.46,0,0,0,1.18.14c1.81,0,2.52-.84,2.52-4,0-2.12,0-2.15-2.89-2.15-.71,0-1.45,0-2.19,0-.06,4.44-.47,9.25-3,13.45a2.25,2.25,0,0,1-1.85,1.11A1.52,1.52,0,0,1,697,74.16a1.84,1.84,0,0,1,.34-1c2.48-3.87,2.92-8.68,2.92-13.11,0-1.79-.07-3.53-.1-5.11v-.07c0-1.78,1.07-3.16,3.39-3.16,3,0,6.12,0,9.28,0-.07-1.05-.17-3.9-.17-4.07a1.58,1.58,0,0,1,1.75-1.41A1.51,1.51,0,0,1,716,47.7c0,1.28,0,2.59.1,4,2.92,0,5.78,0,8.47,0A1.4,1.4,0,0,1,726,53.25a1.36,1.36,0,0,1-1.28,1.51Zm-4.1-3.87a12,12,0,0,0-2.85-1.81,1.27,1.27,0,0,1-.81-1.18,1.29,1.29,0,0,1,1.34-1.28,11.08,11.08,0,0,1,4.17,2,1.6,1.6,0,0,1,.64,1.21,1.54,1.54,0,0,1-1.44,1.51A1.56,1.56,0,0,1,720.54,50.89Z"/><path d="M758.73,65.72l-10-.17a37.37,37.37,0,0,0,10.89,6.25,1.46,1.46,0,0,1,1,1.31,1.91,1.91,0,0,1-1.92,1.78c-1.44,0-7.4-3.56-11.33-7.26l.07,7.37v0a1.59,1.59,0,0,1-3.13,0v0l.07-7.17c-4,3.87-10.12,7.4-11.43,7.4a1.64,1.64,0,0,1-1.68-1.51,1.56,1.56,0,0,1,1.08-1.35,33.1,33.1,0,0,0,10.69-6.82l-9.79.17h0a1.42,1.42,0,1,1,0-2.83l11.16,0V60.67c-1.88,0-3.73-.06-5.54-.1-2.39-.06-3.67-1.31-3.73-3.09,0-1-.07-2.35-.07-3.6s0-2.52.07-3.39c.06-1.45,1-3,3.63-3,1.41,0,3.69-.06,6.18-.06,3,0,6.22,0,8.37.06a3.35,3.35,0,0,1,3.46,2.79c.07.81.1,2,.1,3.27,0,1.44,0,2.92-.1,3.9a3.47,3.47,0,0,1-3.66,3.15c-1.88.07-3.83.1-5.78.1v2.26l11.36,0a1.42,1.42,0,1,1,0,2.83ZM744.44,49.85c-1.88,0-3.63,0-4.77.07-1.61,0-1.61,1.07-1.61,2.82h6.38Zm0,5.28h-6.38c0,2.42.13,2.89,1.64,3,1.25,0,3,0,4.74,0Zm9.35-2.39c0-2.22,0-2.79-1.58-2.82-1.11,0-2.92-.07-4.84-.07v2.89Zm-6.42,2.39v3c1.78,0,3.53,0,4.87,0,1.55,0,1.55-.78,1.55-3Z"/><path d="M790.33,66.93,784,66.86c0,2.15,0,4,0,4.4.07,1.25,1.14,1.38,2.79,1.38,2.15,0,3.19-.54,3.19-2.52a1.44,1.44,0,0,1,1.55-1.51,1.71,1.71,0,0,1,1.81,1.85c0,4-2.25,5.17-6.82,5.17-1.82,0-5.65,0-5.65-3.9,0-.43,0-2.52,0-4.9l-3.63,0c-.61,4.1-2.76,7.9-9.45,9.28a4.21,4.21,0,0,1-.57.07,1.64,1.64,0,0,1-1.75-1.68A1.42,1.42,0,0,1,766.73,73c5.08-.71,6.79-3.09,7.33-6.15l-5.35.1h0a1.41,1.41,0,0,1-1.55-1.45,1.54,1.54,0,0,1,1.58-1.61l5.58,0V60h-.4a1.49,1.49,0,0,1-1.41-.77c-2.62,1.95-5.31,3.22-6.05,3.22a1.6,1.6,0,0,1-1.55-1.64,1.54,1.54,0,0,1,1-1.45c7-3,10.76-8.57,10.76-8.94s-.2-.34-.54-.34c-1.24,0-2.82.07-4.74.07a1.43,1.43,0,0,1,0-2.86h4.74c2.15,0,3.87,0,4.3,1.89a1.19,1.19,0,0,1,.91.47c.44.5.87,1,1.34,1.51a17.44,17.44,0,0,0,2.49-2.93,1.26,1.26,0,0,1,1.11-.63A1.81,1.81,0,0,1,788,49.25c0,1.14-2.59,3.32-3.3,3.9.54.5,1,.94,1.62,1.41a19.19,19.19,0,0,0,3.09-3.1,1.3,1.3,0,0,1,1.08-.57,1.87,1.87,0,0,1,1.74,1.72c0,.74-1.1,1.91-3.52,3.7a24.86,24.86,0,0,0,4.47,2.38,1.56,1.56,0,0,1,1.07,1.41,1.83,1.83,0,0,1-1.88,1.75c-1.38,0-4-1.75-6.15-3.43v.07A1.46,1.46,0,0,1,784.65,60h-.54c0,1,0,2.42,0,3.93l6.25,0a1.52,1.52,0,0,1,1.61,1.55,1.46,1.46,0,0,1-1.58,1.51ZM769.82,55a13.75,13.75,0,0,0-2.92-2.32,1.17,1.17,0,0,1-.67-1,1.64,1.64,0,0,1,1.68-1.48c1.34,0,4.13,2.39,4.23,2.49a1.55,1.55,0,0,1,.44,1,1.83,1.83,0,0,1-1.75,1.75A1.3,1.3,0,0,1,769.82,55Zm14.73,2a49.18,49.18,0,0,1-5-5.11A35.72,35.72,0,0,1,775,57ZM781,63.9c0-1.51,0-2.92,0-3.93h-3.53v3.16c0,.27,0,.5,0,.77Z"/><path d="M815.84,62a12.83,12.83,0,0,0,1.85,4.3A29.54,29.54,0,0,0,822.8,63a1.58,1.58,0,0,1,1-.37,1.79,1.79,0,0,1,1.74,1.71,1.62,1.62,0,0,1-.87,1.38,32.83,32.83,0,0,1-5.11,2.66,17.1,17.1,0,0,0,7.36,3.69A1.51,1.51,0,0,1,828,73.65a1.77,1.77,0,0,1-1.74,1.85A17.27,17.27,0,0,1,813,62.86a27.52,27.52,0,0,1-2.19,1.78v6.12c1.14-.37,2.19-.74,3.06-1.11a2.34,2.34,0,0,1,.77-.17,1.42,1.42,0,0,1,1.45,1.38,1.8,1.8,0,0,1-1.31,1.61A56.37,56.37,0,0,1,802.36,76a1.61,1.61,0,0,1-1.78-1.58,1.76,1.76,0,0,1,1.65-1.68c1.85-.27,3.73-.67,5.48-1.11v-4.9c-1.78,1.07-6.69,3.59-8,3.59a1.59,1.59,0,0,1-1.65-1.54,1.5,1.5,0,0,1,1.15-1.45A34,34,0,0,0,809.76,62h-9.08a1.39,1.39,0,0,1-1.48-1.38,1.38,1.38,0,0,1,1.48-1.38l10.83,0V57.21l-7.53,0a1.31,1.31,0,0,1-1.38-1.31A1.29,1.29,0,0,1,804,54.62h7.49v-2l-9.41,0a1.34,1.34,0,1,1,0-2.68h9.41V48a1.47,1.47,0,0,1,1.65-1.42A1.51,1.51,0,0,1,814.8,48v2h9.51a1.34,1.34,0,1,1,0,2.68l-9.51,0v2h7.6a1.28,1.28,0,0,1,1.31,1.32,1.25,1.25,0,0,1-1.31,1.31l-7.63,0V59.3l11,0a1.33,1.33,0,0,1,1.41,1.38A1.35,1.35,0,0,1,825.76,62Z"/><path d="M847.71,50.66c-.37-.41-.64-.61-.87-.61s-.47.2-.81.61a51.93,51.93,0,0,1-10.79,10.08,2.51,2.51,0,0,1-1.41.47,1.75,1.75,0,0,1-.78-3.36c3.9-2,8.07-6.12,10.63-9.44a3.73,3.73,0,0,1,2.92-1.62,4.35,4.35,0,0,1,3.16,1.62,39.56,39.56,0,0,0,10.89,8.4,1.58,1.58,0,0,1,.91,1.44,2,2,0,0,1-2,2C857.76,60.24,851.44,54.83,847.71,50.66ZM846,65.15a56.22,56.22,0,0,1-2.46,6.55c3.09-.23,6.15-.6,9.08-1a22.37,22.37,0,0,0-2.46-2,1.37,1.37,0,0,1-.7-1.14A1.52,1.52,0,0,1,851,66.19c2,0,8,5.61,8,7.6a1.91,1.91,0,0,1-1.88,1.81,1.53,1.53,0,0,1-1.38-.91A13.9,13.9,0,0,0,854.7,73a136.57,136.57,0,0,1-18.08,2.28,1.59,1.59,0,0,1-1.55-1.68,1.41,1.41,0,0,1,1.38-1.51c1.18,0,2.39-.07,3.6-.13a39.1,39.1,0,0,0,2.38-6.76l-6.35,0a1.43,1.43,0,0,1-1.58-1.44,1.54,1.54,0,0,1,1.58-1.58h21.34A1.52,1.52,0,0,1,859,63.73a1.49,1.49,0,0,1-1.62,1.48ZM842.16,59a1.48,1.48,0,0,1-1.58-1.51,1.5,1.5,0,0,1,1.58-1.51h9.65a1.5,1.5,0,0,1,1.58,1.51A1.48,1.48,0,0,1,851.81,59Z"/><path d="M102.15,122.54a8.27,8.27,0,0,1-8.5-8.64,17.77,17.77,0,0,1,2.32-8c1.38-2.55,6.48-9,8.7-9a2.12,2.12,0,0,1,2,2,1.44,1.44,0,0,1-.74,1.28c-4,2.59-7.19,7-7.19,7.73,0,.07,0,.1.1.1s.1,0,.2-.06a8.73,8.73,0,0,1,3.7-.84c5,0,7.77,3.53,7.77,7.49C110.56,119.11,107,122.54,102.15,122.54Zm.1-12.47a4.76,4.76,0,0,0-5,4.7c0,2.86,2.35,4.37,4.84,4.37,3.36,0,5-2.32,5-4.6A4.45,4.45,0,0,0,102.25,110.07Z"/><path d="M114.76,123.58a1.61,1.61,0,0,1-1.68-1.51,1.53,1.53,0,0,1,.13-.64c1.55-3.87,8.61-22.36,9.35-25.05A1.41,1.41,0,0,1,124,95.31a1.67,1.67,0,0,1,1.75,1.48,1.64,1.64,0,0,1-.1.54c-.94,2.35-7.8,20.67-9.45,25.21A1.49,1.49,0,0,1,114.76,123.58Z"/><path d="M137.21,122.33a1.86,1.86,0,0,1-2-1.84c0-3.13.13-10.29.13-14.73,0-4.7-.16-5.07-1.31-5.07h-.47a1.67,1.67,0,0,1-1.71-1.78,2,2,0,0,1,1.75-2.06c.67,0,.94,0,1.64,0a3.58,3.58,0,0,1,3.9,3.6c0,.43,0,1,0,1.78,0,2.69-.1,7.19-.1,12,0,2.08,0,4.2.06,6.29v.06A1.8,1.8,0,0,1,137.21,122.33Z"/><path d="M157,106.4c2.05-.07,3-1.41,3-3.39a3.21,3.21,0,0,0-3.5-3,4.79,4.79,0,0,0-3.56,1.75,1.69,1.69,0,0,1-1.18.5,2,2,0,0,1-1.88-1.88c0-1.88,3.87-3.83,6.79-3.83,4.27,0,7,2.72,7,6.49A5.38,5.38,0,0,1,161,108a7.06,7.06,0,0,1,4,6.49c0,4.73-3.63,8.1-8.71,8.1s-8-3-8-4.54a2.08,2.08,0,0,1,2-2,1.78,1.78,0,0,1,1.31.64,5.63,5.63,0,0,0,4.91,2.32,4.69,4.69,0,0,0,4.84-4.57c0-3.43-2.05-4.47-4.44-4.47h-.3c-.2,0-.37,0-.5,0a1.81,1.81,0,0,1-1.78-1.78A1.75,1.75,0,0,1,156,106.4Z"/><path d="M179.67,115.65c-2.72,0-4.2-.11-5.68-.11-1,0-2,0-3.4.11a1.72,1.72,0,0,1-1.71-1.89,1.69,1.69,0,0,1,1.58-1.85h.07c1.17,0,2.55.07,4,.07,1.75,0,3.56,0,5.18-.07h.07a1.71,1.71,0,0,1,1.68,1.85,1.75,1.75,0,0,1-1.72,1.89Z"/><path d="M193.75,122.33a1.86,1.86,0,0,1-2-1.84c0-3.13.13-10.29.13-14.73,0-4.7-.16-5.07-1.31-5.07h-.47a1.67,1.67,0,0,1-1.71-1.78,2,2,0,0,1,1.75-2.06c.67,0,.94,0,1.64,0a3.58,3.58,0,0,1,3.9,3.6c0,.43,0,1,0,1.78,0,2.69-.1,7.19-.1,12,0,2.08,0,4.2.06,6.29v.06A1.8,1.8,0,0,1,193.75,122.33Z"/><path d="M218.76,120.49v.06a1.65,1.65,0,0,1-1.78,1.72,1.74,1.74,0,0,1-1.85-1.78c0-1.18,0-2.56,0-3.94-3.26,0-6.73,0-7.06,0-2.26,0-3.4-1.11-3.4-2.59a4.63,4.63,0,0,1,.94-2.59c2-2.86,7.57-10.62,10-14a1.6,1.6,0,0,1,1.37-.74,2,2,0,0,1,2,1.91,2.11,2.11,0,0,1-.47,1.28c-9.85,12.81-9.85,12.84-9.85,13.08,0,.4.54.4,1.38.4,1.14,0,3.16-.07,5.14-.1,0-1.35,0-2.62,0-3.63,0-.74,0-1.35,0-1.78v-.14A1.76,1.76,0,0,1,217,105.9a1.73,1.73,0,0,1,1.75,1.91c0,1.58-.1,2.86-.1,5.35l2.32-.07h.1a1.63,1.63,0,0,1,1.72,1.65,1.81,1.81,0,0,1-2,1.75c-.41,0-1.21,0-2.19,0C218.66,117.63,218.73,119,218.76,120.49Z"/><path d="M443,114.74c0,5.71-4.68,7.83-8.91,7.83-4.74,0-8.71-2.79-8.71-7.83a7.22,7.22,0,0,1,4.17-6.62,5.82,5.82,0,0,1-3-5.11c0-4.64,3.9-6.52,7.6-6.52,5,0,7.6,3.12,7.6,6.52a5.91,5.91,0,0,1-3,5.11A6.9,6.9,0,0,1,443,114.74ZM434.2,110c-3.33,0-5.18,2.22-5.18,4.7,0,2.83,2.56,4.44,5.18,4.44s5.18-1.61,5.18-4.44C439.38,113.12,438.7,110,434.2,110Zm0-10.22c-2.32,0-4,1.55-4,3.36,0,2.42,1.75,3.46,3.9,3.46,4,0,4.1-2.75,4.1-3.46C438.2,100.52,435.58,99.78,434.2,99.78Z"/><path d="M478.71,119.41c0,2-1.79,4.51-6.46,4.51-2.45,0-4-.38-4-2a1.53,1.53,0,0,1,1.54-1.61,1.5,1.5,0,0,1,.37,0,12.72,12.72,0,0,0,2.29.24c1.54,0,2.85-.44,2.85-2s0-3.53,0-5.52H464.32A16.23,16.23,0,0,1,458,123.78a1.93,1.93,0,0,1-1.18.4A1.77,1.77,0,0,1,455,122.5a1.53,1.53,0,0,1,.74-1.27c5-3.47,5.82-9,5.82-14.53,0-2.62-.17-5.24-.17-7.66s1.75-3.36,4-3.4c1.51,0,3.43-.06,5.28-.06,1.34,0,2.69,0,3.83.06,2.29.11,4,1.18,4.07,3.4v2.39c0,3.16,0,6.52,0,9.51,0,1.31,0,2.55,0,3.7l.07,4.74Zm-3.33-13.65H464.82c0,1.48,0,3-.13,4.47h10.69Zm0-2.89c0-1.17,0-2.32-.07-3.33s-.5-1.14-4.44-1.14c-1.71,0-3.46,0-4.87.07-.77,0-1.24.3-1.24,1.07,0,1,0,2.19,0,3.33Z"/><path d="M494,118.33a1.77,1.77,0,0,1,2.79-2.18c2.86,2.92,8.3,2.69,13.38,1.24,2.79-.77,3.6,2.86.87,3.7C504.39,123.18,496.32,121.6,494,118.33Zm3.77-13.71c-2.66.5-3.1-3.06-.1-3.5a35.86,35.86,0,0,1,10.72.1c2.82.61,2.08,4.07-.64,3.5A25.56,25.56,0,0,0,497.77,104.62Zm13.85-3.29A11.49,11.49,0,0,0,509.13,99c-1.62-.91-.07-2.76,1.41-2a11,11,0,0,1,3.06,2.39C514.74,101,512.56,102.77,511.62,101.33ZM513,96.89c-1.65-.88-.13-2.79,1.38-2.09a10.93,10.93,0,0,1,3.12,2.32c1.18,1.52-.94,3.37-1.91,1.95A11.36,11.36,0,0,0,513,96.89Z"/><path d="M546.71,108.45c4.17,3.67,2.39,10.39-4.2,13.11a22.78,22.78,0,0,1-6.62,2c-2.69.37-3.53-3-.64-3.39a18.31,18.31,0,0,0,6-1.72c4-2.05,5-5.21,3.43-7.26-2.85-3.7-10.32-1.31-14,2.93-1.18,1.34-.54.74-1.38,1.74-1.65,2-5.14.61-3.13-2,.68-.87.88-.7,2.16-2.18,1.58-1.82,1.88-2.09,3.59-4s4.14-5,5.38-6.75c.27-.37,0-.57-.3-.41a17.8,17.8,0,0,1-5,1.92c-2.73.64-3.5-3.09-.61-3.36a35.75,35.75,0,0,0,5.68-1.35c1.85-.67,2-.74,3-.57,1.82.31,3.16,2.09,1.41,3.87-2.25,2.32-5.21,5.61-7.29,7.73C537.6,105.93,543.58,105.7,546.71,108.45Z"/><path d="M719.37,122.33a1.87,1.87,0,0,1-2-1.85c0-3.12.13-10.28.13-14.72,0-4.71-.17-5.08-1.31-5.08h-.47A1.67,1.67,0,0,1,714,98.9a2,2,0,0,1,1.74-2.05c.68,0,.94,0,1.65,0a3.58,3.58,0,0,1,3.9,3.6c0,.43,0,1,0,1.78,0,2.69-.1,7.19-.1,12,0,2.08,0,4.2.07,6.28v.07A1.81,1.81,0,0,1,719.37,122.33Z"/><path d="M730.9,113.83c-.13-1.45-.2-2.86-.2-4.27s.07-2.59.17-4c.47-5.85,3.66-9.07,8.23-9.07s7.67,3.09,8.2,8.7c.14,1.48.24,3,.24,4.41,0,3.79-.3,12.94-8.44,12.94C734.63,122.57,731.44,119.48,730.9,113.83Zm12.51.13a36.1,36.1,0,0,0,.3-4.74c0-2.59,0-9.24-4.61-9.24-2.35,0-4.13,2.15-4.47,5.75-.1,1.24-.17,2.48-.17,3.69a34.49,34.49,0,0,0,.24,4.21c.4,3.43,2.22,5.41,4.4,5.41S742.93,117.16,743.41,114Z"/><path d="M783.61,119.41c0,2-1.78,4.5-6.46,4.5-2.45,0-4-.37-4-2a1.53,1.53,0,0,1,1.54-1.61,1.5,1.5,0,0,1,.37,0,13.67,13.67,0,0,0,2.29.23c1.55,0,2.86-.43,2.86-1.94s0-3.53,0-5.52H769.22a16.23,16.23,0,0,1-6.32,10.66,1.93,1.93,0,0,1-1.18.4,1.77,1.77,0,0,1-1.78-1.68,1.53,1.53,0,0,1,.74-1.28c5-3.46,5.82-9,5.82-14.52,0-2.62-.17-5.24-.17-7.66s1.75-3.36,4-3.4c1.52,0,3.43-.06,5.28-.06,1.35,0,2.69,0,3.83.06,2.29.1,4,1.18,4.07,3.4v2.38c0,3.16,0,6.53,0,9.52,0,1.31,0,2.55,0,3.69l.07,4.75Zm-3.33-13.65H769.72c0,1.48,0,3-.13,4.47h10.69Zm0-2.89c0-1.18,0-2.32-.07-3.33s-.5-1.14-4.43-1.14c-1.72,0-3.47,0-4.88.07-.77,0-1.24.3-1.24,1.07,0,1,0,2.19,0,3.33Z"/><path d="M798.9,118.33a1.77,1.77,0,0,1,2.79-2.18c2.86,2.92,8.31,2.69,13.38,1.24,2.79-.77,3.6,2.86.88,3.7C809.29,123.17,801.22,121.59,798.9,118.33Zm3.77-13.71c-2.66.5-3.09-3.06-.1-3.5a35.86,35.86,0,0,1,10.72.1c2.82.61,2.08,4.07-.64,3.5A25.56,25.56,0,0,0,802.67,104.62Zm13.85-3.3A11.75,11.75,0,0,0,814,99c-1.61-.9-.07-2.75,1.41-2a10.78,10.78,0,0,1,3.06,2.39C819.64,101,817.46,102.77,816.52,101.32Zm1.34-4.43c-1.65-.88-.13-2.79,1.38-2.09a11.11,11.11,0,0,1,3.13,2.32c1.17,1.51-1,3.36-1.92,1.95A11.36,11.36,0,0,0,817.86,96.89Z"/><path d="M851.61,108.45c4.17,3.66,2.39,10.39-4.2,13.11a23.09,23.09,0,0,1-6.62,2c-2.69.37-3.53-3-.64-3.4a18.22,18.22,0,0,0,6-1.71c4-2.05,5-5.21,3.42-7.26-2.85-3.7-10.32-1.31-14,2.92-1.18,1.35-.54.74-1.38,1.75-1.65,2-5.14.61-3.12-2,.67-.87.87-.7,2.15-2.18,1.58-1.82,1.88-2.09,3.59-4s4.14-5,5.38-6.75c.27-.37,0-.58-.3-.41a17.8,17.8,0,0,1-5,1.92c-2.73.64-3.5-3.09-.61-3.36A35.49,35.49,0,0,0,842,97.59c1.85-.67,2-.74,3-.57,1.82.3,3.16,2.09,1.41,3.87-2.25,2.32-5.21,5.61-7.29,7.73C842.5,105.93,848.49,105.69,851.61,108.45Z"/></svg>