<svg xmlns="http://www.w3.org/2000/svg" viewBox="0 0 143 180"><title>sp-creator</title><rect width="143" height="180" rx="9.8" style="fill:#fff"/><path d="M83.4,81.58a21.85,21.85,0,0,1,6.45,15.83A21.36,21.36,0,0,1,83.4,113.1l-10,10a21.37,21.37,0,0,1-15.69,6.45,22.28,22.28,0,0,1-22.28-22.29,21.35,21.35,0,0,1,6.45-15.68L47.49,86a2,2,0,0,1,2.42-.44,2.37,2.37,0,0,1,1.54,2,26.36,26.36,0,0,0,1.46,7.77,2.15,2.15,0,0,1-.58,2.35l-1.91,2.05a10.36,10.36,0,0,0-3.15,7.4,9.84,9.84,0,0,0,3,7.4,10,10,0,0,0,7.48,3.23,10.21,10.21,0,0,0,7.48-3.08l9.82-9.82a10.61,10.61,0,0,0,0-15,17.49,17.49,0,0,0-1.47-1.32,1.91,1.91,0,0,1-1-1.76,5.47,5.47,0,0,1,1.61-4.4l3.22-3.08a2,2,0,0,1,2.93-.29A35.62,35.62,0,0,1,83.4,81.58Zm4.84-27.12a22.28,22.28,0,0,1,22.28,22.28,21.36,21.36,0,0,1-6.45,15.69L98.5,98a2,2,0,0,1-2.42.44,2.34,2.34,0,0,1-1.54-2,26.36,26.36,0,0,0-1.46-7.77,2.16,2.16,0,0,1,.58-2.35l1.91-2a10.36,10.36,0,0,0,3.15-7.4,9.87,9.87,0,0,0-3-7.41,10,10,0,0,0-7.48-3.22,10.17,10.17,0,0,0-7.48,3.08l-9.82,9.82a10.61,10.61,0,0,0,0,15,17.49,17.49,0,0,0,1.47,1.32,1.92,1.92,0,0,1,1,1.76,5.56,5.56,0,0,1-1.62,4.4L68.6,104.6a2,2,0,0,1-2.93.29,35.62,35.62,0,0,1-3.08-2.49,21.85,21.85,0,0,1-6.45-15.83,21.36,21.36,0,0,1,6.45-15.69l10-10A21.32,21.32,0,0,1,88.24,54.46Z" style="fill:#ffed4d"/><path d="M80.56,78.49A21.86,21.86,0,0,1,87,94.33,21.35,21.35,0,0,1,80.56,110l-10,10a21.35,21.35,0,0,1-15.68,6.45,22.28,22.28,0,0,1-22.29-22.28,21.36,21.36,0,0,1,6.45-15.69l5.58-5.57a2,2,0,0,1,2.41-.44,2.35,2.35,0,0,1,1.54,2,26.7,26.7,0,0,0,1.47,7.77,2.16,2.16,0,0,1-.59,2.35l-1.9,2a10.33,10.33,0,0,0-3.16,7.4A10.63,10.63,0,0,0,54.91,114.7a10.17,10.17,0,0,0,7.47-3.08l9.82-9.82a10.61,10.61,0,0,0,0-15,17.41,17.41,0,0,0-1.46-1.32,1.9,1.9,0,0,1-1-1.76,5.52,5.52,0,0,1,1.61-4.4l3.23-3.08A2,2,0,0,1,77.48,76,37.21,37.21,0,0,1,80.56,78.49ZM85.4,51.37a22.29,22.29,0,0,1,22.28,22.29,21.35,21.35,0,0,1-6.45,15.68l-5.57,5.57a2,2,0,0,1-2.42.44,2.34,2.34,0,0,1-1.54-2,26.7,26.7,0,0,0-1.47-7.77,2.17,2.17,0,0,1,.59-2.35l1.91-2.05a10.36,10.36,0,0,0,3.15-7.4,9.81,9.81,0,0,0-3-7.4A9.94,9.94,0,0,0,85.4,63.1a10.2,10.2,0,0,0-7.48,3.08L68.1,76a10.61,10.61,0,0,0,0,15,17.41,17.41,0,0,0,1.46,1.32,1.91,1.91,0,0,1,1,1.76A5.5,5.5,0,0,1,69,98.43l-3.23,3.08a2,2,0,0,1-2.93.29,37.21,37.21,0,0,1-3.08-2.49,21.85,21.85,0,0,1-6.45-15.83,21.36,21.36,0,0,1,6.45-15.69l10-10A21.36,21.36,0,0,1,85.4,51.37Z" style="fill:none;stroke:#000;stroke-linecap:round;stroke-linejoin:round;stroke-width:2px"/></svg>